<svg width="769" height="769" viewBox="0 0 769 769" fill="none" xmlns="http://www.w3.org/2000/svg">
<g filter="url(#filter0_d_8178_1692)">
<path d="M383 747C584.584 747 748 583.584 748 382C748 180.416 584.584 17 383 17C181.416 17 18 180.416 18 382C18 583.584 181.416 747 383 747Z" fill="black"/>
<path fill-rule="evenodd" clip-rule="evenodd" d="M383 30.5185C188.882 30.5185 31.5185 187.882 31.5185 382C31.5185 576.118 188.882 733.481 383 733.481C577.118 733.481 734.482 576.118 734.482 382C734.482 187.882 577.118 30.5185 383 30.5185ZM4.48151 382C4.48151 172.95 173.95 3.48145 383 3.48145C592.05 3.48145 761.518 172.95 761.518 382C761.518 591.05 592.05 760.518 383 760.518C173.95 760.518 4.48151 591.05 4.48151 382Z" fill="url(#paint0_linear_8178_1692)"/>
<path d="M227.124 596.669C268.204 608.548 311.229 612.627 353.877 608.687C428.097 601.215 493.516 575.25 541.893 517.605C624.459 419.187 600.305 258.303 469.046 195.871C449.056 186.605 427.862 180.058 406.056 176.415C329.125 162.848 244.447 199.143 206.104 261.609C193.005 282.323 184.305 305.405 180.524 329.479C176.744 353.553 177.959 378.124 184.098 401.728C197.266 455.586 229.87 492.914 285.606 507.756C318.773 516.606 352.116 512.99 384.649 504.003C418.52 494.602 446.688 476.42 464.75 445.737C471.653 433.754 476.854 420.906 480.207 407.548C481.932 401.109 480.665 399.077 473.482 399.146C446.195 399.525 418.873 399.146 391.586 399.456C384.825 399.456 382.361 397.837 382.678 390.916C383.241 379.724 382.959 368.498 382.678 357.306C382.678 352.692 383.804 350.901 388.98 350.901C436.254 351.108 483.516 351.108 530.767 350.901C535.591 350.901 537.562 352.038 537.422 357.1C536.401 391.225 531.049 424.077 515.416 455.345C507.954 471.524 498.199 486.594 486.439 500.111C450.842 538.611 405.845 557.412 353.208 560.89C291.028 565.023 235.433 550.043 189.344 507.963C139.84 462.645 117.976 406.205 123.644 340.57C130.404 262.298 170.578 202.827 237.264 160.609C320.886 107.509 441.477 108.956 523.056 164.363C610.692 223.868 650.901 306.135 642.028 410.475C639.117 443.941 628.848 476.396 611.924 505.621C592.383 539.575 567.666 569.362 534.887 592.124C480.277 630.003 419.718 646.911 352.679 641.126C307.584 637.251 264.305 621.926 227.124 596.669V596.669Z" fill="url(#paint1_linear_8178_1692)"/>
<path d="M514.137 296.311C495.022 296.311 476.253 296.311 457.793 296.311C454.108 296.311 452.283 293.556 449.941 291.593C432.685 276.781 411.047 268.04 388.345 266.709C365.643 265.379 343.131 271.533 324.263 284.227C305.396 296.922 291.213 315.456 283.893 336.986C276.572 358.516 276.516 381.854 283.735 403.419C290.85 424.879 304.968 443.326 323.823 455.801C326.165 457.386 328.507 459.039 330.711 460.692C330.711 460.692 330.711 461.174 330.883 461.381C314.186 463.889 297.122 461.11 282.083 453.433C267.045 445.756 254.785 433.567 247.022 418.572C225.153 376.59 228.632 334.023 249.502 292.936C272.335 247.992 310.564 223.609 360.122 218.168C424.421 211.004 475.22 234.423 511.106 288.803C512.036 290.25 512.897 291.765 513.689 293.28C513.94 294.273 514.09 295.288 514.137 296.311V296.311Z" fill="url(#paint2_linear_8178_1692)"/>
</g>
<defs>
<filter id="filter0_d_8178_1692" x="-3" y="0" width="776" height="776" filterUnits="userSpaceOnUse" color-interpolation-filters="sRGB">
<feFlood flood-opacity="0" result="BackgroundImageFix"/>
<feColorMatrix in="SourceAlpha" type="matrix" values="0 0 0 0 0 0 0 0 0 0 0 0 0 0 0 0 0 0 127 0" result="hardAlpha"/>
<feOffset dy="4"/>
<feGaussianBlur stdDeviation="2"/>
<feComposite in2="hardAlpha" operator="out"/>
<feColorMatrix type="matrix" values="0 0 0 0 0 0 0 0 0 0 0 0 0 0 0 0 0 0 0.25 0"/>
<feBlend mode="normal" in2="BackgroundImageFix" result="effect1_dropShadow_8178_1692"/>
<feBlend mode="normal" in="SourceGraphic" in2="effect1_dropShadow_8178_1692" result="shape"/>
</filter>
<linearGradient id="paint0_linear_8178_1692" x1="34.9276" y1="94.4251" x2="766.686" y2="107.014" gradientUnits="userSpaceOnUse">
<stop stop-color="#F3A50D"/>
<stop offset="1" stop-color="#D58000"/>
</linearGradient>
<linearGradient id="paint1_linear_8178_1692" x1="143.701" y1="184.296" x2="646.785" y2="192.951" gradientUnits="userSpaceOnUse">
<stop stop-color="#F3A50D"/>
<stop offset="1" stop-color="#D58000"/>
</linearGradient>
<linearGradient id="paint2_linear_8178_1692" x1="243.498" y1="246.386" x2="516.035" y2="251.774" gradientUnits="userSpaceOnUse">
<stop stop-color="#F3A50D"/>
<stop offset="1" stop-color="#D58000"/>
</linearGradient>
</defs>
</svg>
