<svg width="30" height="31.5" viewBox="0 0 20 21" fill="none" xmlns="http://www.w3.org/2000/svg">
<path d="M4.16267 18.4285C5.68759 18.8695 7.28471 19.0209 8.86784 18.8747C11.623 18.5973 14.0514 17.6334 15.8472 15.4936C18.9121 11.8403 18.0155 5.86813 13.143 3.5506C12.401 3.20661 11.6142 2.96361 10.8048 2.82837C7.94902 2.32473 4.80571 3.67204 3.3824 5.99084C2.89614 6.75976 2.57321 7.61659 2.43286 8.51022C2.29252 9.40385 2.33764 10.316 2.56553 11.1922C3.05434 13.1914 4.26462 14.5771 6.33358 15.128C7.56477 15.4565 8.80249 15.3223 10.0101 14.9887C11.2675 14.6397 12.3131 13.9648 12.9835 12.8258C13.2398 12.381 13.4328 11.9041 13.5573 11.4082C13.6214 11.1692 13.5743 11.0937 13.3077 11.0963C12.2948 11.1104 11.2805 11.0963 10.2676 11.1078C10.0167 11.1078 9.92519 11.0477 9.93695 10.7908C9.95787 10.3754 9.94741 9.95863 9.93695 9.54319C9.93695 9.3719 9.97878 9.30543 10.1709 9.30543C11.9258 9.3131 13.6802 9.3131 15.4342 9.30543C15.6132 9.30543 15.6864 9.34761 15.6812 9.53552C15.6433 10.8023 15.4446 12.0218 14.8643 13.1825C14.5873 13.783 14.2252 14.3425 13.7887 14.8442C12.4673 16.2733 10.797 16.9713 8.843 17.1004C6.53486 17.2538 4.47112 16.6977 2.76027 15.1357C0.922644 13.4535 0.111003 11.3584 0.321428 8.92194C0.57237 6.01641 2.06365 3.80881 4.53909 2.24164C7.64319 0.270527 12.1196 0.324215 15.1479 2.38097C18.401 4.58984 19.8936 7.64366 19.5642 11.5169C19.4562 12.7591 19.075 13.9639 18.4468 15.0488C17.7214 16.3091 16.8039 17.4149 15.5871 18.2598C13.5599 19.6659 11.3119 20.2935 8.8234 20.0788C7.14942 19.9349 5.54285 19.3661 4.16267 18.4285Z" fill="#DE8C04"/>
<path d="M15.1414 7.27774C14.4161 7.27774 13.7038 7.27774 13.0032 7.27774C12.8634 7.27774 12.7941 7.17547 12.7052 7.10261C12.0504 6.55286 11.2292 6.2284 10.3676 6.17902C9.5061 6.12964 8.65178 6.35805 7.93575 6.82923C7.21971 7.30041 6.6815 7.98833 6.40367 8.78745C6.12584 9.58658 6.12374 10.4528 6.39769 11.2532C6.6677 12.0497 7.20347 12.7344 7.91903 13.1975C8.0079 13.2563 8.09678 13.3176 8.18042 13.379C8.18042 13.379 8.18042 13.3969 8.18696 13.4045C7.55329 13.4976 6.90572 13.3945 6.33501 13.1096C5.76429 12.8246 5.29903 12.3722 5.00444 11.8156C4.1745 10.2574 4.30651 8.67746 5.09854 7.15247C5.96508 5.48431 7.41583 4.57928 9.29659 4.37731C11.7367 4.11143 13.6646 4.98066 15.0264 6.99907C15.0617 7.05276 15.0944 7.109 15.1245 7.16525C15.134 7.20209 15.1397 7.23977 15.1414 7.27774Z" fill="#DE8C04"/>
</svg>
