<svg width="186" height="37" viewBox="0 0 186 37" fill="none" xmlns="http://www.w3.org/2000/svg">
<path d="M47.7518 17.1537C47.7518 12.9468 50.3388 7.51025 57.205 7.51025C62.9049 7.51025 66.4525 11.0779 66.4525 16.71C66.4525 22.3422 62.7903 26.7954 56.9758 26.7954C50.4063 26.8008 47.7518 21.5109 47.7518 17.1537ZM63.2487 17.621C63.2487 12.1101 60.2959 8.69101 56.541 8.69101C53.9084 8.69101 50.9102 10.2666 50.9102 16.3895C50.9102 21.5055 53.5427 25.5639 57.9381 25.5639C59.5409 25.5693 63.2487 24.7345 63.2487 17.6264V17.621Z" fill="url(#paint0_linear_7865_2014)"/>
<path d="M69.0259 12.3699C68.5529 11.1808 68.2469 10.9798 67.4906 10.777C67.2262 10.7199 66.9568 10.6943 66.6873 10.7007C66.4995 10.7007 66.4525 10.6002 66.4525 10.4737C66.4525 10.2969 66.6647 10.2709 66.9742 10.2709C68.0852 10.2709 69.2658 10.323 69.9979 10.323C70.5195 10.323 71.6027 10.2709 72.6425 10.2709C72.9016 10.2709 73.138 10.323 73.138 10.4737C73.138 10.6244 72.9972 10.7007 72.8077 10.7007C72.4773 10.7007 72.1696 10.7268 72.0044 10.8533C71.9357 10.8974 71.8796 10.9607 71.8422 11.0365C71.8048 11.1123 71.7875 11.1976 71.7922 11.2832C71.7922 11.5604 71.9818 12.141 72.2652 12.9003L75.7601 22.5303H75.8314C76.7286 20.2972 79.3958 13.3804 79.8931 11.9642C79.9892 11.7135 80.0529 11.4499 80.0826 11.1808C80.0826 10.9538 79.9887 10.8775 79.7992 10.8086C79.5293 10.7357 79.2516 10.7012 78.9733 10.7063C78.7838 10.7063 78.6256 10.6319 78.6256 10.4793C78.6256 10.3267 78.8029 10.2653 79.2133 10.2653C80.2565 10.2653 81.1728 10.3174 81.4319 10.3174C81.7797 10.3174 82.7551 10.2653 83.3932 10.2653C83.6523 10.2653 83.8175 10.3174 83.8175 10.4681C83.8175 10.6188 83.6992 10.6951 83.4871 10.6951C83.275 10.6951 82.8264 10.6709 82.4717 10.9482C82.2126 11.151 81.9292 11.4786 81.385 12.8444C80.5591 14.8653 80.0166 16.0284 78.8829 18.6559C77.5597 21.7915 76.5912 24.1418 76.12 25.2285C75.5984 26.466 75.4106 26.7954 75.1272 26.7954C74.8438 26.7954 74.6786 26.5162 74.2769 25.5058L69.0259 12.3699Z" fill="url(#paint1_linear_7865_2014)"/>
<path d="M87.1933 16.678C87.1933 13.4082 87.1933 12.7998 87.1713 12.1167C87.1256 11.3813 86.9411 11.1536 86.2977 10.9502C86.0324 10.8927 85.7622 10.8671 85.4919 10.8737C85.2853 10.8737 85.1533 10.799 85.1533 10.646C85.1533 10.493 85.3141 10.4426 85.6121 10.4426C86.6702 10.4426 87.9586 10.4948 88.5325 10.4948C89.1758 10.4948 93.6605 10.5191 94.0516 10.4948C94.4427 10.4706 94.7407 10.3922 94.8981 10.3679C95.0029 10.3251 95.1104 10.2908 95.2198 10.2653C95.3349 10.2653 95.3586 10.3679 95.3586 10.4687C95.2709 10.9281 95.2143 11.3941 95.1893 11.8629C95.1656 12.0905 95.1199 13.0293 95.0742 13.2831C95.0505 13.3839 95.0048 13.6377 94.8439 13.6377C94.6831 13.6377 94.6831 13.5351 94.6831 13.3578C94.6846 13.0885 94.638 12.8215 94.546 12.5721C94.3767 12.1988 94.2226 11.889 93.2119 11.7863C92.8733 11.7359 90.4523 11.6856 90.0392 11.6856C89.9461 11.6856 89.9004 11.7621 89.9004 11.889V17.2118C89.9004 17.3387 89.9241 17.4395 90.0392 17.4395C90.498 17.4395 93.1188 17.4395 93.5793 17.3891C94.0398 17.3387 94.3614 17.2864 94.546 17.0587C94.7068 16.9075 94.7745 16.7806 94.8676 16.7806C94.9162 16.7876 94.9604 16.8155 94.9905 16.8581C95.0206 16.9007 95.0342 16.9547 95.0285 17.0083C95.0285 17.1352 94.9828 17.4898 94.8676 18.5798C94.8219 19.0109 94.7745 19.8732 94.7745 20.0243C94.7745 20.1755 94.7593 20.5152 94.5748 20.5152C94.4376 20.5152 94.3902 20.4405 94.3902 20.3285C94.3682 20.1008 94.3682 19.8228 94.3225 19.5428C94.2074 19.1117 93.9534 18.7832 93.195 18.7067C92.8276 18.6563 90.5285 18.6059 90.0223 18.6059C89.9309 18.6059 89.9072 18.7067 89.9072 18.8336V20.5562C89.9072 21.2916 89.8835 23.1168 89.9072 23.7514C89.9529 25.2221 90.5742 25.5505 92.6431 25.5505C93.173 25.5505 94.0228 25.5244 94.5527 25.2725C95.0606 25.0186 95.2875 24.5614 95.4263 23.6749C95.472 23.4472 95.5178 23.3445 95.6549 23.3445C95.792 23.3445 95.8394 23.6245 95.8394 23.8522C95.8071 24.6536 95.7148 25.4508 95.5635 26.2355C95.4263 26.7954 95.2418 26.7954 94.4833 26.7954C92.9596 26.7954 91.7475 26.7692 90.7588 26.7189C89.7701 26.6685 89.0099 26.6685 88.4123 26.6685C88.182 26.6685 87.7453 26.6927 87.2627 26.6927C86.7802 26.6927 86.274 26.7431 85.861 26.7431C85.607 26.7431 85.4699 26.6685 85.4699 26.5154C85.4699 26.4146 85.5393 26.2877 85.7915 26.2877C86.031 26.2937 86.2703 26.268 86.5043 26.2112C86.9174 26.1104 87.0325 25.7054 87.1019 25.0709C87.1933 24.1583 87.1933 22.458 87.1933 20.4834V16.678Z" fill="url(#paint2_linear_7865_2014)"/>
<path d="M99.3667 16.0602C99.3667 13.0214 99.3667 12.4559 99.3431 11.8211C99.294 11.1377 99.0957 10.9261 98.4046 10.7371C98.1196 10.6836 97.8293 10.6598 97.5389 10.6659C97.317 10.6659 97.1752 10.5966 97.1752 10.4543C97.1752 10.3121 97.3571 10.2653 97.6681 10.2653C98.8047 10.2653 100.189 10.3138 100.633 10.3138C101.375 10.3138 103.35 10.2653 104.017 10.2653C105.399 10.2653 106.982 10.3832 108.142 11.1134C108.603 11.4285 108.982 11.8414 109.248 12.3196C109.513 12.7979 109.659 13.3285 109.673 13.8696C109.673 15.3543 108.784 16.6743 106.66 18.2995C108.586 20.5543 110.115 22.3738 111.427 23.6227C112.638 24.7778 113.403 24.8715 113.749 24.9426C113.919 24.9793 114.093 24.995 114.267 24.9894C114.333 24.9841 114.398 25.0031 114.449 25.0426C114.5 25.0821 114.532 25.1389 114.54 25.2011C114.54 25.3745 114.391 25.4127 114.12 25.4127H112.039C110.828 25.4127 110.235 25.2965 109.675 25.0137C108.737 24.5645 107.922 23.6261 106.711 22.0651C105.847 20.981 104.932 19.6368 104.661 19.3315C104.61 19.282 104.548 19.2438 104.48 19.2195C104.412 19.1953 104.339 19.1855 104.266 19.191L102.315 19.1442C102.29 19.1394 102.264 19.1406 102.24 19.1477C102.215 19.1547 102.193 19.1674 102.175 19.1845C102.157 19.2017 102.144 19.2228 102.137 19.246C102.129 19.2692 102.128 19.2938 102.133 19.3176V19.6004C102.133 21.4615 102.157 23.0156 102.257 23.8638C102.329 24.4535 102.429 24.8299 103.095 24.9235C103.447 24.9689 103.802 24.9926 104.157 24.9947C104.223 24.9893 104.288 25.0083 104.338 25.0478C104.389 25.0873 104.422 25.1441 104.43 25.2063C104.43 25.3485 104.257 25.4179 103.984 25.4179C102.726 25.4179 100.922 25.3485 100.602 25.3485C100.181 25.3485 98.7975 25.4179 97.9336 25.4179C97.6608 25.4179 97.5135 25.3485 97.5135 25.2063C97.5135 25.1126 97.588 24.9947 97.859 24.9947C98.1163 25.0003 98.3734 24.9764 98.6247 24.9235C99.0685 24.8299 99.1921 24.4535 99.2667 23.8638C99.3649 23.0156 99.3649 21.4355 99.3649 19.6004L99.3667 16.0602ZM102.135 17.6213C102.135 17.8329 102.184 17.904 102.331 17.9682C102.871 18.1037 103.428 18.1668 103.986 18.1555C104.852 18.1555 105.148 18.0844 105.518 17.826C106.185 17.3785 106.925 16.5077 106.925 14.8582C106.925 12.031 104.901 11.3008 103.617 11.3008C103.187 11.2911 102.757 11.3149 102.331 11.3719C102.184 11.4187 102.135 11.4898 102.135 11.6546V17.6213Z" fill="url(#paint3_linear_7865_2014)"/>
<path d="M131.378 24.8015C131.378 25.4661 131.354 25.515 131.071 25.6871C129.543 26.5237 127.238 26.7954 125.405 26.7954C119.643 26.7954 114.54 23.9413 114.54 17.1537C114.54 13.2167 116.493 10.4622 118.631 9.10935C120.882 7.68411 122.982 7.51025 124.958 7.51025C126.355 7.53565 127.749 7.67004 129.127 7.91229C129.74 8.04206 130.361 8.13217 130.985 8.18213C131.267 8.20748 131.314 8.30527 131.314 8.47732C131.314 8.74896 131.141 9.43714 131.141 12.5122C131.141 12.9052 131.07 13.0283 130.883 13.0283C130.696 13.0283 130.67 12.9052 130.647 12.7078C130.576 12.1427 130.459 11.355 129.847 10.6668C129.141 9.87902 127.261 8.74896 124.603 8.74896C123.31 8.74896 121.594 8.84676 119.947 10.2738C118.63 11.4292 117.785 13.2746 117.785 16.2989C117.785 21.587 121.005 25.5476 125.967 25.5476C126.578 25.5476 127.401 25.5476 127.965 25.276C128.312 25.0949 128.412 24.7852 128.412 24.3705V22.047C128.412 20.8173 128.412 19.8738 128.39 19.1494C128.365 18.3128 128.154 17.9198 127.378 17.7459C127.075 17.6916 126.768 17.6674 126.461 17.6735C126.25 17.6735 126.114 17.6246 126.114 17.4761C126.114 17.2787 126.288 17.2298 126.61 17.2298C127.832 17.2298 129.314 17.304 130.019 17.304C130.723 17.304 131.994 17.2298 132.77 17.2298C133.076 17.2298 133.241 17.2787 133.241 17.4761C133.241 17.6246 133.099 17.6735 132.934 17.6735C132.721 17.6784 132.508 17.7027 132.299 17.7459C131.665 17.8691 131.433 18.2892 131.406 19.1494C131.383 19.8865 131.383 20.8699 131.383 22.0995L131.378 24.8015Z" fill="url(#paint4_linear_7865_2014)"/>
<path d="M134.577 18.5303C134.577 14.9323 137.006 10.2653 143.367 10.2653C148.655 10.2653 151.942 13.3188 151.942 18.1575C151.942 22.9963 148.558 26.7954 143.151 26.7954C137.053 26.7954 134.577 22.2782 134.577 18.5303ZM148.821 18.9269C148.821 14.2617 146.129 11.3836 142.746 11.3836C140.412 11.3836 137.672 12.6737 137.672 17.8853C137.672 22.2289 140.056 25.6533 144.009 25.6533C145.486 25.6533 148.821 24.9333 148.821 18.9269Z" fill="url(#paint5_linear_7865_2014)"/>
<path d="M158.301 20.4165C158.301 23.2079 158.301 24.5924 158.779 25.0017C159.148 25.3336 160.006 25.4619 161.711 25.4619C162.888 25.4619 163.74 25.4374 164.294 24.847C164.571 24.566 164.796 23.9511 164.847 23.5418C164.873 23.3362 164.923 23.2079 165.098 23.2079C165.273 23.2079 165.299 23.4381 165.299 23.6946C165.253 24.5387 165.144 25.3779 164.973 26.205C164.823 26.6916 164.722 26.7954 163.571 26.7954C161.991 26.7954 160.713 26.769 159.611 26.718C158.51 26.6671 157.582 26.6671 156.68 26.6671C156.429 26.6671 155.953 26.6916 155.427 26.6916C154.901 26.6916 154.349 26.7426 153.897 26.7426C153.622 26.7426 153.471 26.6671 153.471 26.5125C153.471 26.4106 153.547 26.2823 153.822 26.2823C154.083 26.2886 154.343 26.2626 154.598 26.205C155.05 26.1032 155.176 25.6939 155.25 25.0526C155.351 24.1303 155.351 22.412 155.351 20.4165V16.5725C155.351 13.268 155.351 12.6531 155.325 11.9628C155.275 11.2197 155.074 10.9895 154.373 10.784C154.135 10.7275 153.891 10.7015 153.646 10.7066C153.395 10.7066 153.277 10.6312 153.277 10.4765C153.277 10.3219 153.419 10.2653 153.742 10.2653C154.768 10.2653 156.172 10.3181 156.774 10.3181C157.299 10.3181 159.104 10.2653 159.956 10.2653C160.281 10.2653 160.432 10.3181 160.432 10.4709C160.432 10.6236 160.307 10.701 160.032 10.701C159.746 10.7014 159.461 10.7273 159.179 10.7783C158.578 10.8802 158.403 11.1876 158.353 11.9571C158.301 12.6475 158.301 13.2623 158.301 16.5669V20.4165Z" fill="url(#paint6_linear_7865_2014)"/>
<path d="M168.755 16.5268C168.755 13.2462 168.755 12.6358 168.732 11.9505C168.685 11.2127 168.493 10.9843 167.825 10.7802C167.549 10.7225 167.268 10.6968 166.987 10.7034C166.772 10.7034 166.635 10.6285 166.635 10.475C166.635 10.3214 166.797 10.2653 167.101 10.2653C168.201 10.2653 169.54 10.3177 170.137 10.3177C170.782 10.3177 172.287 10.2653 173.554 10.2653C176.183 10.2653 179.713 10.2653 182.014 12.7332C183.07 13.8567 183.999 15.658 183.999 18.2251C184.014 19.3413 183.82 20.4494 183.427 21.4845C183.034 22.5196 182.451 23.4607 181.712 24.2526C180.754 25.2712 178.532 26.7954 174.661 26.7954C173.895 26.7954 172.987 26.7205 172.151 26.6699C171.316 26.6194 170.55 26.5426 170.024 26.5426C169.785 26.5426 169.331 26.5669 168.829 26.5669C168.328 26.5669 167.802 26.6175 167.372 26.6175C167.108 26.6175 166.966 26.5426 166.966 26.3891C166.966 26.2879 167.038 26.1606 167.3 26.1606C167.549 26.1666 167.798 26.1408 168.041 26.0838C168.47 25.9827 168.59 25.5764 168.662 24.9398C168.757 24.0241 168.757 22.3183 168.757 20.3373L168.755 16.5268ZM171.571 18.9179C171.571 21.2079 171.595 22.8595 171.618 23.292C171.643 23.8257 171.69 24.5896 171.858 24.8181C172.12 25.2244 172.957 25.6831 174.606 25.6831C176.517 25.6831 177.928 25.3274 179.195 24.2076C180.557 23.013 180.987 21.0806 180.987 18.8412C180.987 16.0961 179.959 14.3154 179.028 13.4503C177.093 11.6191 174.805 11.3906 173.147 11.3906C172.718 11.3906 172.025 11.4412 171.858 11.5423C171.77 11.5651 171.694 11.6226 171.646 11.703C171.597 11.7835 171.579 11.8807 171.595 11.9748C171.571 12.7126 171.571 14.4933 171.571 16.1972V18.9179Z" fill="url(#paint7_linear_7865_2014)"/>
<path d="M22.3371 35.0602L12.0286 18.844L22.6485 2.34852H43.3078L35.5664 14.7721L34.1939 9.29307L35.9688 6.54599L24.9063 6.49836L16.7116 18.8527L22.0978 27.3688L29.2038 16.807L25.5819 12.4082L30.3793 12.2718L34.1452 16.5234L22.3371 35.0602ZM13.1173 18.8483L22.3392 33.3522L32.9993 16.6165L29.9853 13.2156L27.4945 13.2849L30.3475 16.7485L22.0745 29.0465L15.6145 18.8397L24.4255 5.55453L37.6505 5.61081L35.1766 9.46625L35.9286 12.4666L41.6472 3.27936H23.1398L13.1173 18.8483Z" fill="url(#paint8_linear_7865_2014)"/>
<path d="M11.0416 17.7551L1 2H21.0853L11.0416 17.7551ZM2.58641 2.87889L11.0416 16.1424L19.4968 2.87889H2.58641Z" fill="url(#paint9_linear_7865_2014)"/>
<path d="M11.0501 12.4147L5.83124 4.52411L15.9449 4.70811L11.0501 12.4147ZM7.56591 5.48526L11.0353 10.7283L14.2864 5.60865L7.56591 5.48526Z" fill="url(#paint10_linear_7865_2014)"/>
<defs>
<linearGradient id="paint0_linear_7865_2014" x1="53.2314" y1="9.827" x2="183.051" y2="25.605" gradientUnits="userSpaceOnUse">
<stop stop-color="#F3A50D"/>
<stop offset="1" stop-color="#D58000"/>
</linearGradient>
<linearGradient id="paint1_linear_7865_2014" x1="53.2314" y1="9.827" x2="183.051" y2="25.605" gradientUnits="userSpaceOnUse">
<stop stop-color="#F3A50D"/>
<stop offset="1" stop-color="#D58000"/>
</linearGradient>
<linearGradient id="paint2_linear_7865_2014" x1="53.2314" y1="9.827" x2="183.051" y2="25.605" gradientUnits="userSpaceOnUse">
<stop stop-color="#F3A50D"/>
<stop offset="1" stop-color="#D58000"/>
</linearGradient>
<linearGradient id="paint3_linear_7865_2014" x1="53.2314" y1="9.827" x2="183.051" y2="25.605" gradientUnits="userSpaceOnUse">
<stop stop-color="#F3A50D"/>
<stop offset="1" stop-color="#D58000"/>
</linearGradient>
<linearGradient id="paint4_linear_7865_2014" x1="53.2314" y1="9.827" x2="183.051" y2="25.605" gradientUnits="userSpaceOnUse">
<stop stop-color="#F3A50D"/>
<stop offset="1" stop-color="#D58000"/>
</linearGradient>
<linearGradient id="paint5_linear_7865_2014" x1="53.2314" y1="9.827" x2="183.051" y2="25.605" gradientUnits="userSpaceOnUse">
<stop stop-color="#F3A50D"/>
<stop offset="1" stop-color="#D58000"/>
</linearGradient>
<linearGradient id="paint6_linear_7865_2014" x1="53.2314" y1="9.827" x2="183.051" y2="25.605" gradientUnits="userSpaceOnUse">
<stop stop-color="#F3A50D"/>
<stop offset="1" stop-color="#D58000"/>
</linearGradient>
<linearGradient id="paint7_linear_7865_2014" x1="53.2314" y1="9.827" x2="183.051" y2="25.605" gradientUnits="userSpaceOnUse">
<stop stop-color="#F3A50D"/>
<stop offset="1" stop-color="#D58000"/>
</linearGradient>
<linearGradient id="paint8_linear_7865_2014" x1="2.70151" y1="5.97156" x2="43.5889" y2="6.87169" gradientUnits="userSpaceOnUse">
<stop stop-color="#F3A50D"/>
<stop offset="1" stop-color="#D58000"/>
</linearGradient>
<linearGradient id="paint9_linear_7865_2014" x1="2.70151" y1="5.97156" x2="43.5889" y2="6.87169" gradientUnits="userSpaceOnUse">
<stop stop-color="#F3A50D"/>
<stop offset="1" stop-color="#D58000"/>
</linearGradient>
<linearGradient id="paint10_linear_7865_2014" x1="2.70151" y1="5.97156" x2="43.5889" y2="6.87169" gradientUnits="userSpaceOnUse">
<stop stop-color="#F3A50D"/>
<stop offset="1" stop-color="#D58000"/>
</linearGradient>
</defs>
</svg>
