<svg width="211" height="37" viewBox="0 0 211 37" fill="none" xmlns="http://www.w3.org/2000/svg">
<path d="M53.077 23.7387L57.7802 7.94357H62.3599L55.408 27.9069H52.3914L53.077 23.7387ZM48.7441 7.94357L53.4335 23.7387L54.1465 27.9069H51.1025L44.1917 7.94357H48.7441Z" fill="url(#paint0_linear_9_153)"/>
<path d="M68.4271 13.0715V27.9069H64.4644V13.0715H68.4271ZM64.2176 9.20498C64.2176 8.62912 64.4187 8.1538 64.8209 7.77903C65.2231 7.40426 65.7625 7.21688 66.4389 7.21688C67.1062 7.21688 67.641 7.40426 68.0432 7.77903C68.4545 8.1538 68.6602 8.62912 68.6602 9.20498C68.6602 9.78085 68.4545 10.2562 68.0432 10.6309C67.641 11.0057 67.1062 11.1931 66.4389 11.1931C65.7625 11.1931 65.2231 11.0057 64.8209 10.6309C64.4187 10.2562 64.2176 9.78085 64.2176 9.20498Z" fill="url(#paint1_linear_9_153)"/>
<path d="M75.9204 15.9234V33.6107H71.9714V13.0715H75.6324L75.9204 15.9234ZM85.313 20.3247V20.6126C85.313 21.6912 85.185 22.6921 84.929 23.6153C84.6822 24.5385 84.3166 25.3429 83.8321 26.0285C83.3476 26.7049 82.7443 27.235 82.0221 27.619C81.3091 27.9937 80.4864 28.1811 79.554 28.1811C78.649 28.1811 77.8629 27.9983 77.1956 27.6327C76.5283 27.267 75.9661 26.7552 75.509 26.097C75.0611 25.4298 74.7 24.6574 74.4258 23.7799C74.1515 22.9023 73.9413 21.9609 73.795 20.9554V20.2013C73.9413 19.1227 74.1515 18.1355 74.4258 17.2397C74.7 16.3347 75.0611 15.5532 75.509 14.8951C75.9661 14.2278 76.5237 13.7114 77.1819 13.3457C77.8492 12.9801 78.6307 12.7973 79.5266 12.7973C80.4681 12.7973 81.2954 12.9755 82.0084 13.332C82.7306 13.6885 83.3339 14.2004 83.8184 14.8677C84.312 15.5349 84.6822 16.3302 84.929 17.2534C85.185 18.1766 85.313 19.2004 85.313 20.3247ZM81.3503 20.6126V20.3247C81.3503 19.694 81.2954 19.1135 81.1857 18.5834C81.0852 18.0441 80.9206 17.5733 80.6921 17.1711C80.4727 16.7689 80.1802 16.4581 79.8145 16.2388C79.458 16.0102 79.0238 15.896 78.5119 15.896C77.9726 15.896 77.5109 15.9828 77.127 16.1565C76.7522 16.3302 76.446 16.5815 76.2083 16.9106C75.9706 17.2397 75.7924 17.6327 75.6736 18.0898C75.5547 18.5468 75.4816 19.0632 75.4542 19.6391V21.5449C75.4999 22.2214 75.6278 22.8292 75.8381 23.3685C76.0483 23.8987 76.3729 24.3192 76.8116 24.6299C77.2504 24.9407 77.8263 25.0961 78.5393 25.0961C79.0604 25.0961 79.4992 24.9819 79.8557 24.7533C80.2122 24.5157 80.5001 24.1912 80.7195 23.7799C80.948 23.3685 81.108 22.8932 81.1994 22.3539C81.3 21.8146 81.3503 21.2342 81.3503 20.6126Z" fill="url(#paint2_linear_9_153)"/>
<path d="M99.8678 21.2844H103.968C103.885 22.6281 103.515 23.821 102.857 24.863C102.208 25.9051 101.298 26.7186 100.128 27.3036C98.9674 27.8886 97.5688 28.1811 95.9325 28.1811C94.6527 28.1811 93.5055 27.9617 92.4908 27.523C91.4762 27.0751 90.6077 26.4352 89.8856 25.6034C89.1726 24.7716 88.6287 23.7661 88.2539 22.587C87.8791 21.4078 87.6917 20.087 87.6917 18.6245V17.2397C87.6917 15.7772 87.8837 14.4563 88.2676 13.2772C88.6607 12.0889 89.2183 11.0788 89.9404 10.247C90.6717 9.41522 91.5447 8.77537 92.5594 8.32748C93.5741 7.87958 94.7076 7.65563 95.9599 7.65563C97.6236 7.65563 99.0268 7.95728 100.169 8.56056C101.321 9.16385 102.213 9.99566 102.843 11.056C103.483 12.1163 103.867 13.3229 103.995 14.6757H99.8815C99.8358 13.8713 99.6758 13.1903 99.4016 12.6328C99.1274 12.066 98.7114 11.641 98.1538 11.3576C97.6054 11.0651 96.8741 10.9189 95.9599 10.9189C95.2743 10.9189 94.6756 11.0468 94.1637 11.3028C93.6518 11.5587 93.2221 11.9472 92.8748 12.4682C92.5274 12.9892 92.2669 13.6474 92.0932 14.4426C91.9287 15.2287 91.8464 16.1519 91.8464 17.2123V18.6245C91.8464 19.6574 91.9241 20.5669 92.0795 21.353C92.2349 22.13 92.4726 22.7881 92.7925 23.3274C93.1216 23.8575 93.5421 24.2597 94.054 24.534C94.575 24.799 95.2012 24.9316 95.9325 24.9316C96.7918 24.9316 97.5002 24.7945 98.0578 24.5203C98.6155 24.246 99.0405 23.8393 99.333 23.3C99.6347 22.7607 99.813 22.0888 99.8678 21.2844Z" fill="url(#paint3_linear_9_153)"/>
<path d="M106.072 20.64V20.3521C106.072 19.2643 106.228 18.2634 106.538 17.3494C106.849 16.4261 107.302 15.6263 107.896 14.9499C108.49 14.2735 109.221 13.7479 110.09 13.3732C110.958 12.9892 111.955 12.7973 113.079 12.7973C114.203 12.7973 115.204 12.9892 116.082 13.3732C116.959 13.7479 117.695 14.2735 118.289 14.9499C118.893 15.6263 119.35 16.4261 119.661 17.3494C119.971 18.2634 120.127 19.2643 120.127 20.3521V20.64C120.127 21.7186 119.971 22.7195 119.661 23.6427C119.35 24.5568 118.893 25.3566 118.289 26.0422C117.695 26.7186 116.964 27.2442 116.095 27.619C115.227 27.9937 114.231 28.1811 113.106 28.1811C111.982 28.1811 110.981 27.9937 110.103 27.619C109.235 27.2442 108.499 26.7186 107.896 26.0422C107.302 25.3566 106.849 24.5568 106.538 23.6427C106.228 22.7195 106.072 21.7186 106.072 20.64ZM110.021 20.3521V20.64C110.021 21.2616 110.076 21.842 110.186 22.3813C110.295 22.9206 110.469 23.3959 110.707 23.8073C110.954 24.2095 111.273 24.5248 111.667 24.7533C112.06 24.9819 112.54 25.0961 113.106 25.0961C113.655 25.0961 114.126 24.9819 114.519 24.7533C114.912 24.5248 115.227 24.2095 115.465 23.8073C115.702 23.3959 115.876 22.9206 115.986 22.3813C116.105 21.842 116.164 21.2616 116.164 20.64V20.3521C116.164 19.7488 116.105 19.1821 115.986 18.6519C115.876 18.1126 115.698 17.6373 115.451 17.226C115.213 16.8055 114.898 16.4764 114.505 16.2388C114.112 16.0011 113.636 15.8823 113.079 15.8823C112.521 15.8823 112.046 16.0011 111.653 16.2388C111.269 16.4764 110.954 16.8055 110.707 17.226C110.469 17.6373 110.295 18.1126 110.186 18.6519C110.076 19.1821 110.021 19.7488 110.021 20.3521Z" fill="url(#paint4_linear_9_153)"/>
<path d="M127.003 13.0715V27.9069H123.04V13.0715H127.003ZM122.793 9.20498C122.793 8.62912 122.995 8.1538 123.397 7.77903C123.799 7.40426 124.338 7.21688 125.015 7.21688C125.682 7.21688 126.217 7.40426 126.619 7.77903C127.03 8.1538 127.236 8.62912 127.236 9.20498C127.236 9.78085 127.03 10.2562 126.619 10.6309C126.217 11.0057 125.682 11.1931 125.015 11.1931C124.338 11.1931 123.799 11.0057 123.397 10.6309C122.995 10.2562 122.793 9.78085 122.793 9.20498Z" fill="url(#paint5_linear_9_153)"/>
<path d="M134.414 16.2388V27.9069H130.465V13.0715H134.167L134.414 16.2388ZM133.838 19.9682H132.769C132.769 18.8713 132.91 17.8841 133.194 17.0066C133.477 16.1199 133.875 15.3658 134.387 14.7443C134.898 14.1135 135.506 13.6337 136.21 13.3046C136.923 12.9664 137.718 12.7973 138.596 12.7973C139.291 12.7973 139.926 12.8978 140.502 13.0989C141.078 13.3 141.572 13.6199 141.983 14.0587C142.403 14.4975 142.723 15.0779 142.943 15.8C143.171 16.5221 143.285 17.4042 143.285 18.4462V27.9069H139.309V18.4325C139.309 17.7744 139.218 17.2625 139.035 16.8969C138.852 16.5313 138.582 16.2753 138.226 16.1291C137.878 15.9737 137.449 15.896 136.937 15.896C136.407 15.896 135.945 16.0011 135.552 16.2113C135.168 16.4216 134.848 16.7141 134.592 17.0889C134.345 17.4545 134.158 17.8841 134.03 18.3777C133.902 18.8713 133.838 19.4015 133.838 19.9682Z" fill="url(#paint6_linear_9_153)"/>
<path d="M146.761 26.001C146.761 25.416 146.962 24.927 147.364 24.534C147.776 24.1409 148.32 23.9444 148.996 23.9444C149.673 23.9444 150.212 24.1409 150.614 24.534C151.026 24.927 151.231 25.416 151.231 26.001C151.231 26.5861 151.026 27.0751 150.614 27.4681C150.212 27.8612 149.673 28.0577 148.996 28.0577C148.32 28.0577 147.776 27.8612 147.364 27.4681C146.962 27.0751 146.761 26.5861 146.761 26.001Z" fill="url(#paint7_linear_9_153)"/>
<path d="M171.065 17.4728V25.3841C170.754 25.7588 170.274 26.1656 169.625 26.6043C168.976 27.0339 168.14 27.4041 167.116 27.7149C166.092 28.0257 164.854 28.1811 163.4 28.1811C162.111 28.1811 160.937 27.9709 159.876 27.5504C158.816 27.1208 157.902 26.4946 157.134 25.672C156.375 24.8493 155.79 23.8438 155.379 22.6555C154.967 21.4581 154.762 20.0916 154.762 18.5559V17.3082C154.762 15.7726 154.958 14.4061 155.351 13.2086C155.754 12.0112 156.325 11.0011 157.065 10.1785C157.806 9.35581 158.688 8.72967 159.712 8.30005C160.736 7.87044 161.874 7.65563 163.126 7.65563C164.863 7.65563 166.289 7.939 167.404 8.50572C168.519 9.0633 169.369 9.84026 169.954 10.8366C170.549 11.8238 170.914 12.9572 171.051 14.2369H167.061C166.961 13.5605 166.769 12.971 166.485 12.4682C166.202 11.9655 165.795 11.5724 165.265 11.2891C164.744 11.0057 164.068 10.864 163.236 10.864C162.55 10.864 161.938 11.0057 161.398 11.2891C160.868 11.5633 160.42 11.9701 160.055 12.5094C159.689 13.0487 159.41 13.7159 159.218 14.5112C159.026 15.3064 158.93 16.2296 158.93 17.2808V18.5559C158.93 19.598 159.031 20.5212 159.232 21.3256C159.433 22.1208 159.73 22.7927 160.123 23.3411C160.525 23.8804 161.019 24.2872 161.604 24.5614C162.189 24.8356 162.87 24.9727 163.647 24.9727C164.296 24.9727 164.835 24.9179 165.265 24.8082C165.704 24.6985 166.056 24.566 166.321 24.4106C166.595 24.246 166.805 24.0906 166.952 23.9444V20.4069H163.195V17.4728H171.065Z" fill="url(#paint8_linear_9_153)"/>
<path d="M173.787 20.64V20.3521C173.787 19.2643 173.942 18.2634 174.253 17.3494C174.564 16.4261 175.016 15.6263 175.61 14.9499C176.204 14.2735 176.936 13.7479 177.804 13.3732C178.673 12.9892 179.669 12.7973 180.793 12.7973C181.918 12.7973 182.919 12.9892 183.796 13.3732C184.674 13.7479 185.41 14.2735 186.004 14.9499C186.607 15.6263 187.064 16.4261 187.375 17.3494C187.686 18.2634 187.841 19.2643 187.841 20.3521V20.64C187.841 21.7186 187.686 22.7195 187.375 23.6427C187.064 24.5568 186.607 25.3566 186.004 26.0422C185.41 26.7186 184.678 27.2442 183.81 27.619C182.942 27.9937 181.945 28.1811 180.821 28.1811C179.696 28.1811 178.695 27.9937 177.818 27.619C176.949 27.2442 176.214 26.7186 175.61 26.0422C175.016 25.3566 174.564 24.5568 174.253 23.6427C173.942 22.7195 173.787 21.7186 173.787 20.64ZM177.736 20.3521V20.64C177.736 21.2616 177.79 21.842 177.9 22.3813C178.01 22.9206 178.184 23.3959 178.421 23.8073C178.668 24.2095 178.988 24.5248 179.381 24.7533C179.774 24.9819 180.254 25.0961 180.821 25.0961C181.369 25.0961 181.84 24.9819 182.233 24.7533C182.626 24.5248 182.942 24.2095 183.179 23.8073C183.417 23.3959 183.591 22.9206 183.7 22.3813C183.819 21.842 183.879 21.2616 183.879 20.64V20.3521C183.879 19.7488 183.819 19.1821 183.7 18.6519C183.591 18.1126 183.412 17.6373 183.166 17.226C182.928 16.8055 182.612 16.4764 182.219 16.2388C181.826 16.0011 181.351 15.8823 180.793 15.8823C180.236 15.8823 179.76 16.0011 179.367 16.2388C178.983 16.4764 178.668 16.8055 178.421 17.226C178.184 17.6373 178.01 18.1126 177.9 18.6519C177.79 19.1821 177.736 19.7488 177.736 20.3521Z" fill="url(#paint9_linear_9_153)"/>
<path d="M194.717 6.84668V27.9069H190.755V6.84668H194.717Z" fill="url(#paint10_linear_9_153)"/>
<path d="M207.024 24.6711V6.84668H211V27.9069H207.421L207.024 24.6711ZM197.645 20.6674V20.3795C197.645 19.2461 197.773 18.2177 198.029 17.2945C198.285 16.3622 198.659 15.5624 199.153 14.8951C199.647 14.2278 200.254 13.7114 200.977 13.3457C201.699 12.9801 202.522 12.7973 203.445 12.7973C204.313 12.7973 205.072 12.9801 205.721 13.3457C206.379 13.7114 206.937 14.2324 207.394 14.9088C207.86 15.5761 208.235 16.3667 208.518 17.2808C208.802 18.1857 209.007 19.1775 209.135 20.2561V20.8868C209.007 21.9197 208.802 22.8795 208.518 23.7661C208.235 24.6528 207.86 25.4298 207.394 26.097C206.937 26.7552 206.379 27.267 205.721 27.6327C205.063 27.9983 204.295 28.1811 203.417 28.1811C202.494 28.1811 201.671 27.9937 200.949 27.619C200.236 27.2442 199.633 26.7186 199.139 26.0422C198.655 25.3658 198.285 24.5705 198.029 23.6565C197.773 22.7424 197.645 21.746 197.645 20.6674ZM201.594 20.3795V20.6674C201.594 21.2799 201.639 21.8512 201.731 22.3813C201.831 22.9115 201.991 23.3822 202.211 23.7936C202.439 24.1958 202.732 24.5111 203.088 24.7396C203.454 24.959 203.897 25.0687 204.418 25.0687C205.095 25.0687 205.652 24.9179 206.091 24.6162C206.53 24.3054 206.864 23.8804 207.092 23.3411C207.33 22.8018 207.467 22.1802 207.503 21.4764V19.6802C207.476 19.1044 207.394 18.5879 207.257 18.1309C207.129 17.6647 206.937 17.2671 206.681 16.938C206.434 16.609 206.123 16.353 205.748 16.1702C205.383 15.9874 204.949 15.896 204.446 15.896C203.934 15.896 203.495 16.0148 203.129 16.2525C202.764 16.481 202.467 16.7963 202.238 17.1985C202.019 17.6007 201.854 18.076 201.745 18.6245C201.644 19.1638 201.594 19.7488 201.594 20.3795Z" fill="url(#paint11_linear_9_153)"/>
<path d="M0 0.0126561C0.921222 0.0101363 1.84505 0.0126561 2.76627 5.7381e-05C2.94533 -0.00246235 3.02058 0.0781692 3.09584 0.209195C4.22207 2.16199 5.3483 4.11479 6.47972 6.06757C9.59371 11.4548 12.7129 16.8394 15.8295 22.2266C17.3891 24.9252 18.9461 27.6239 20.5031 30.3251C20.5939 30.4838 20.6977 30.635 20.7782 30.7962C20.8871 31.018 20.9599 30.9877 21.074 30.7912C21.6345 29.8337 22.2054 28.8812 22.7711 27.9288C25.7502 22.912 28.7318 17.8952 31.7083 12.8759C33.7921 9.3634 35.8733 5.85088 37.9545 2.33837C38.1284 2.04356 38.131 2.04356 37.7806 2.04356C37.2201 2.04356 36.6622 2.0486 36.1017 2.04104C35.9356 2.03852 35.8422 2.09143 35.7566 2.23255C33.7999 5.51324 31.8407 8.7939 29.8762 12.0721C28.0701 15.0857 26.2589 18.0968 24.4527 21.1129C23.2979 23.043 22.1484 24.9757 20.9962 26.9083C20.9754 26.9436 20.9521 26.9738 20.8923 27.062C15.474 18.0338 10.066 9.03833 4.63468 0.00509685C4.7748 0.00509685 4.86303 0.00509685 4.95386 0.00509685C7.47101 0.00509685 9.98817 0.0101363 12.5079 0.00509685C12.7077 0.00509685 12.8141 0.060531 12.9179 0.231873C15.3572 4.30376 17.8017 8.37314 20.2462 12.4425C20.3864 12.6769 20.5187 12.9137 20.6614 13.1455C20.7133 13.2287 20.7341 13.3647 20.8482 13.3698C20.9702 13.3773 20.9832 13.2362 21.0299 13.153C21.8239 11.7395 22.6129 10.3234 23.4043 8.90482C24.637 6.69499 25.8644 4.48267 27.1048 2.27537C27.2319 2.0486 27.1645 2.03096 26.9517 2.03096C26.3185 2.036 25.688 2.04104 25.0547 2.02844C24.8471 2.0234 24.746 2.08891 24.6655 2.27537C23.7702 4.28361 22.8671 6.2868 21.9693 8.28997C21.7279 8.82918 21.4892 9.37093 21.2453 9.91014C21.2115 9.98578 21.1908 10.0966 21.0766 10.1017C21.0118 10.1042 20.9806 10.0387 20.9469 9.98578C19.9556 8.37821 18.9617 6.7731 17.9678 5.16803C16.9687 3.55288 15.967 1.93773 14.9654 0.322584C14.9083 0.231873 14.859 0.136123 14.7863 0.0126561C15.7828 0.0126561 16.743 0.0126561 17.7031 0.0126561C18.3156 0.0126561 18.9254 0.0202153 19.5378 0.0101363C19.7376 0.00509685 19.8076 0.0529718 19.8024 0.25707C19.7869 0.750938 19.7843 1.24481 19.8024 1.73868C19.8102 1.97553 19.7428 2.05364 19.4911 2.04608C19.0421 2.02844 19.0369 2.04608 19.2679 2.42152C19.6857 3.10185 20.1035 3.77966 20.5265 4.45747C20.5654 4.51794 20.5758 4.62125 20.6899 4.61621C20.8119 4.61117 20.7911 4.50031 20.8197 4.43731C21.4503 3.03886 22.0783 1.6404 22.7037 0.239433C22.7685 0.0907681 22.8386 0.0101363 23.0359 0.0126561C25.7191 0.0202153 28.4023 0.0151758 31.0855 0.0151758C31.1452 0.0151758 31.2023 0.0202153 31.3113 0.0252547C27.8522 6.21876 24.4112 12.3795 20.9443 18.5831C20.5213 17.8801 20.1216 17.2174 19.722 16.5547C17.5292 12.9137 15.3365 9.27016 13.1437 5.62914C12.4768 4.52046 11.8046 3.41429 11.1507 2.29806C11.0366 2.10151 10.9094 2.036 10.6862 2.04356C10.2009 2.05868 9.71306 2.0486 9.2252 2.0486C8.87752 2.0486 8.86714 2.06372 9.03579 2.34593C9.86363 3.72422 10.6966 5.1 11.5218 6.47829C13.7353 10.1697 15.9489 13.8611 18.1624 17.5525C18.9928 18.9384 19.8206 20.3217 20.651 21.7076C20.677 21.7504 20.7107 21.7907 20.734 21.8336C20.8482 22.0502 20.9469 22.0427 21.0662 21.8285C21.3075 21.4077 21.5619 20.997 21.811 20.5813C24.1958 16.5875 26.578 12.5911 28.9628 8.59735C30.6366 5.79545 32.313 2.99602 33.9841 0.194077C34.0516 0.0832083 34.1061 0.0101363 34.2618 0.0101363C36.9139 0.0151758 39.566 0.0126561 42.2181 0.0151758C42.244 0.0151758 42.27 0.0277745 42.3245 0.0428929C35.1779 12.0595 28.0416 24.061 20.8819 36.1003C20.7029 35.7954 20.5369 35.5207 20.376 35.2411C18.0846 31.275 15.7906 27.3064 13.4992 23.3404C9.78312 16.8974 6.06193 10.457 2.34069 4.01651C1.61669 2.7642 0.895276 1.5119 0.17127 0.262109C0.12975 0.191557 0.11937 0.0832083 0 0.0731297C0 0.0529718 0 0.0328139 0 0.0126561Z" fill="url(#paint12_linear_9_153)"/>
<defs>
<linearGradient id="paint0_linear_9_153" x1="47.9505" y1="9.67084" x2="213.536" y2="27.4247" gradientUnits="userSpaceOnUse">
<stop stop-color="#F3A50D"/>
<stop offset="1" stop-color="#D58000"/>
</linearGradient>
<linearGradient id="paint1_linear_9_153" x1="47.9505" y1="9.67084" x2="213.536" y2="27.4247" gradientUnits="userSpaceOnUse">
<stop stop-color="#F3A50D"/>
<stop offset="1" stop-color="#D58000"/>
</linearGradient>
<linearGradient id="paint2_linear_9_153" x1="47.9505" y1="9.67084" x2="213.536" y2="27.4247" gradientUnits="userSpaceOnUse">
<stop stop-color="#F3A50D"/>
<stop offset="1" stop-color="#D58000"/>
</linearGradient>
<linearGradient id="paint3_linear_9_153" x1="47.9505" y1="9.67084" x2="213.536" y2="27.4247" gradientUnits="userSpaceOnUse">
<stop stop-color="#F3A50D"/>
<stop offset="1" stop-color="#D58000"/>
</linearGradient>
<linearGradient id="paint4_linear_9_153" x1="47.9505" y1="9.67084" x2="213.536" y2="27.4247" gradientUnits="userSpaceOnUse">
<stop stop-color="#F3A50D"/>
<stop offset="1" stop-color="#D58000"/>
</linearGradient>
<linearGradient id="paint5_linear_9_153" x1="47.9505" y1="9.67084" x2="213.536" y2="27.4247" gradientUnits="userSpaceOnUse">
<stop stop-color="#F3A50D"/>
<stop offset="1" stop-color="#D58000"/>
</linearGradient>
<linearGradient id="paint6_linear_9_153" x1="47.9505" y1="9.67084" x2="213.536" y2="27.4247" gradientUnits="userSpaceOnUse">
<stop stop-color="#F3A50D"/>
<stop offset="1" stop-color="#D58000"/>
</linearGradient>
<linearGradient id="paint7_linear_9_153" x1="47.9505" y1="9.67084" x2="213.536" y2="27.4247" gradientUnits="userSpaceOnUse">
<stop stop-color="#F3A50D"/>
<stop offset="1" stop-color="#D58000"/>
</linearGradient>
<linearGradient id="paint8_linear_9_153" x1="47.9505" y1="9.67084" x2="213.536" y2="27.4247" gradientUnits="userSpaceOnUse">
<stop stop-color="#F3A50D"/>
<stop offset="1" stop-color="#D58000"/>
</linearGradient>
<linearGradient id="paint9_linear_9_153" x1="47.9505" y1="9.67084" x2="213.536" y2="27.4247" gradientUnits="userSpaceOnUse">
<stop stop-color="#F3A50D"/>
<stop offset="1" stop-color="#D58000"/>
</linearGradient>
<linearGradient id="paint10_linear_9_153" x1="47.9505" y1="9.67084" x2="213.536" y2="27.4247" gradientUnits="userSpaceOnUse">
<stop stop-color="#F3A50D"/>
<stop offset="1" stop-color="#D58000"/>
</linearGradient>
<linearGradient id="paint11_linear_9_153" x1="47.9505" y1="9.67084" x2="213.536" y2="27.4247" gradientUnits="userSpaceOnUse">
<stop stop-color="#F3A50D"/>
<stop offset="1" stop-color="#D58000"/>
</linearGradient>
<linearGradient id="paint12_linear_9_153" x1="0.953709" y1="3.80933" x2="43.4337" y2="4.66611" gradientUnits="userSpaceOnUse">
<stop stop-color="#F3A50D"/>
<stop offset="1" stop-color="#D58000"/>
</linearGradient>
</defs>
</svg>
