<svg width="154" height="31" viewBox="0 0 154 31" fill="none" xmlns="http://www.w3.org/2000/svg">
<path d="M53.0891 16.1184C53.0891 19.1922 52.3267 21.5571 50.8018 23.2129C49.2769 24.8688 47.0898 25.6947 44.2406 25.6907C41.3939 25.6907 39.2075 24.8648 37.6813 23.2129C36.1551 21.5611 35.392 19.1876 35.392 16.0924C35.392 12.9998 36.1571 10.637 37.6873 9.00388C39.2175 7.37075 41.4106 6.55485 44.2666 6.55618C47.1239 6.55618 49.3083 7.37876 50.8199 9.02392C52.3314 10.6691 53.0878 13.0339 53.0891 16.1184ZM39.5236 16.1184C39.5236 18.1953 39.9178 19.7589 40.7063 20.8093C41.4948 21.8598 42.6729 22.385 44.2406 22.385C47.3852 22.385 48.9575 20.2961 48.9575 16.1184C48.9575 11.9407 47.3939 9.84717 44.2666 9.83782C42.699 9.83782 41.5169 10.365 40.7204 11.4195C39.9238 12.4739 39.5249 14.0403 39.5236 16.1184Z" fill="url(#paint0_linear_701_173)"/>
<path d="M60.0193 25.4361L54.6067 11.223H58.6622L61.4086 19.3219C61.6973 20.2686 61.8769 21.2452 61.9438 22.2327H62.046C62.1027 21.2409 62.2949 20.2615 62.6174 19.3219L65.3517 11.223H69.4072L63.9946 25.4361H60.0193Z" fill="url(#paint1_linear_701_173)"/>
<path d="M77.8828 25.6906C75.5935 25.6906 73.8047 25.0592 72.5164 23.7962C71.228 22.5333 70.5839 20.7451 70.5839 18.4317C70.5839 16.0502 71.1792 14.2086 72.37 12.9069C73.5608 11.6052 75.2073 10.955 77.3095 10.9563C79.3142 10.9563 80.8778 11.5283 82.0004 12.6723C83.123 13.8163 83.683 15.3967 83.6803 17.4134V19.2958H74.513C74.5558 20.3983 74.8819 21.259 75.4913 21.8778C76.1007 22.4965 76.9567 22.8059 78.0593 22.8059C78.8768 22.8099 79.692 22.7197 80.4889 22.5373C81.3133 22.3386 82.1143 22.053 82.8785 21.6853V24.6923C82.1888 25.0351 81.4587 25.2897 80.7054 25.4501C79.7753 25.6269 78.8295 25.7075 77.8828 25.6906ZM77.3356 13.7148C76.5137 13.7148 75.8695 13.9754 75.4031 14.4966C74.9367 15.0178 74.6694 15.7575 74.6012 16.7157H80.0439C80.0252 15.7575 79.7752 15.0178 79.2941 14.4966C79.0426 14.2337 78.7376 14.0279 78.3997 13.893C78.0619 13.7581 77.699 13.6973 77.3356 13.7148Z" fill="url(#paint2_linear_701_173)"/>
<path d="M94.7661 10.9564C95.2053 10.9484 95.644 10.9867 96.0752 11.0706L95.7825 14.7071C95.4089 14.6141 95.0247 14.5709 94.6398 14.5788C93.4009 14.5788 92.4367 14.8969 91.7471 15.533C91.0575 16.1692 90.712 17.0592 90.7107 18.2032V25.4361H86.8337V11.223H89.7705L90.3418 13.6126H90.5323C90.959 12.8324 91.5727 12.1705 92.3184 11.6861C93.0445 11.2067 93.8961 10.9529 94.7661 10.9564Z" fill="url(#paint3_linear_701_173)"/>
<path d="M106.018 14.9978H113.391V24.6363C112.291 25.0032 111.162 25.2774 110.016 25.4562C108.944 25.6138 107.863 25.6922 106.78 25.6907C103.974 25.6907 101.831 24.8668 100.353 23.219C98.875 21.5711 98.136 19.2043 98.136 16.1185C98.136 13.1181 98.994 10.7794 100.71 9.10213C102.426 7.4249 104.806 6.58495 107.851 6.58227C109.749 6.58026 111.628 6.96994 113.369 7.72694L112.06 10.8803C110.749 10.2116 109.298 9.86264 107.827 9.8619C106.124 9.8619 104.759 10.4339 103.733 11.5779C102.707 12.7219 102.194 14.2588 102.195 16.1886C102.195 18.2053 102.608 19.7422 103.434 20.7993C104.26 21.8565 105.463 22.391 107.043 22.4031C107.884 22.4015 108.724 22.3162 109.549 22.1485V18.2795H106.018V14.9978Z" fill="url(#paint4_linear_701_173)"/>
<path d="M130.429 18.3036C130.429 20.6196 129.818 22.4298 128.597 23.7342C127.375 25.0386 125.676 25.6908 123.499 25.6908C122.238 25.7162 120.993 25.407 119.89 24.7947C118.848 24.1979 118.01 23.3009 117.485 22.2207C116.903 20.9985 116.616 19.6568 116.647 18.3036C116.647 15.9822 117.253 14.178 118.465 12.891C119.677 11.604 121.381 10.9598 123.575 10.9585C124.835 10.9328 126.08 11.2398 127.183 11.8486C128.224 12.4386 129.062 13.3287 129.589 14.4025C130.172 15.6187 130.46 16.9552 130.429 18.3036ZM120.606 18.3036C120.606 19.7108 120.837 20.7746 121.3 21.495C121.762 22.2153 122.513 22.5748 123.551 22.5735C124.584 22.5735 125.328 22.2153 125.782 21.499C126.237 20.7827 126.463 19.7135 126.462 18.2915C126.462 16.8869 126.233 15.8318 125.774 15.1262C125.316 14.4205 124.566 14.069 123.525 14.0717C122.491 14.0717 121.745 14.4212 121.288 15.1202C120.831 15.8191 120.601 16.8803 120.6 18.3036H120.606Z" fill="url(#paint5_linear_701_173)"/>
<path d="M137.52 25.4361H133.632V5.65405H137.52V25.4361Z" fill="url(#paint6_linear_701_173)"/>
<path d="M146.08 25.6907C144.409 25.6907 143.097 25.0425 142.144 23.7461C141.191 22.4498 140.714 20.6556 140.713 18.3636C140.713 16.0329 141.199 14.2166 142.17 12.9149C143.142 11.6132 144.478 10.9631 146.18 10.9644C147.968 10.9644 149.332 11.6594 150.273 13.0493H150.4C150.218 12.1117 150.12 11.1596 150.109 10.2046V5.65405H154V25.4361H151.025L150.275 23.5938H150.109C149.228 24.9917 147.885 25.6907 146.08 25.6907ZM147.439 22.6015C148.43 22.6015 149.157 22.3135 149.62 21.7375C150.082 21.1615 150.335 20.1825 150.378 18.8006V18.3797C150.378 16.8534 150.142 15.7602 149.672 15.1C149.201 14.4398 148.436 14.1097 147.377 14.1097C146.975 14.0991 146.578 14.1951 146.226 14.3881C145.874 14.5811 145.579 14.8642 145.372 15.2083C144.893 15.942 144.654 17.0078 144.652 18.4057C144.651 19.8036 144.893 20.8527 145.378 21.553C145.603 21.8897 145.91 22.1629 146.271 22.3465C146.632 22.53 147.034 22.6179 147.439 22.6015Z" fill="url(#paint7_linear_701_173)"/>
<path d="M6.07427 28.1674C8.46545 28.8588 10.9698 29.0963 13.4523 28.867C17.7725 28.432 21.5804 26.9207 24.3963 23.5652C29.2023 17.8366 27.7964 8.47184 20.156 4.83781C18.9925 4.29841 17.7588 3.91737 16.4896 3.7053C12.0115 2.91555 7.0826 5.02823 4.85075 8.66427C4.08827 9.86999 3.58188 11.2136 3.36181 12.6148C3.14174 14.0161 3.2125 15.4464 3.56985 16.8203C4.33634 19.9552 6.23413 22.1281 9.47841 22.992C11.409 23.5071 13.3498 23.2966 15.2435 22.7735C17.2151 22.2263 18.8546 21.1679 19.906 19.382C20.3078 18.6845 20.6105 17.9366 20.8057 17.1591C20.9061 16.7842 20.8324 16.666 20.4143 16.67C18.8259 16.692 17.2356 16.67 15.6472 16.688C15.2538 16.688 15.1103 16.5938 15.1287 16.1909C15.1615 15.5395 15.1451 14.886 15.1287 14.2346C15.1287 13.966 15.1943 13.8618 15.4956 13.8618C18.2473 13.8738 20.9984 13.8738 23.7487 13.8618C24.0295 13.8618 24.1443 13.9279 24.1361 14.2226C24.0766 16.209 23.7651 18.1212 22.8552 19.9412C22.4208 20.883 21.853 21.7602 21.1685 22.547C19.0965 24.7879 16.4773 25.8824 13.4134 26.0848C9.79402 26.3253 6.55794 25.4534 3.87521 23.004C0.993689 20.3662 -0.279018 17.0809 0.0509432 13.2604C0.444437 8.70436 2.78286 5.2427 6.66451 2.78527C11.532 -0.305572 18.5513 -0.221385 23.2999 3.00375C28.401 6.46741 30.7414 11.256 30.225 17.3294C30.0555 19.2774 29.4578 21.1666 28.4727 22.8677C27.3353 24.8441 25.8965 26.5779 23.9885 27.9028C20.8098 30.1077 17.2848 31.0919 13.3826 30.7551C10.7577 30.5296 8.23849 29.6376 6.07427 28.1674V28.1674Z" fill="url(#paint8_linear_701_173)"/>
<path d="M22.7807 10.6841C21.6682 10.6841 20.5756 10.6841 19.5011 10.6841C19.2866 10.6841 19.1804 10.5237 19.044 10.4094C18.0396 9.54726 16.7801 9.03844 15.4587 8.96099C14.1372 8.88355 12.8269 9.24176 11.7286 9.98068C10.6304 10.7196 9.80485 11.7984 9.37872 13.0517C8.95258 14.3049 8.94936 15.6633 9.36955 16.9186C9.78368 18.1677 10.6054 19.2415 11.703 19.9676C11.8393 20.0599 11.9756 20.1561 12.1039 20.2523C12.1039 20.2523 12.1039 20.2804 12.1139 20.2924C11.142 20.4384 10.1488 20.2767 9.2734 19.8298C8.39803 19.383 7.68442 18.6734 7.23258 17.8006C5.95961 15.3569 6.16208 12.8792 7.37691 10.4876C8.706 7.87151 10.9312 6.45221 13.8159 6.13547C17.5586 5.7185 20.5155 7.08167 22.6043 10.247C22.6585 10.3312 22.7086 10.4194 22.7547 10.5076C22.7693 10.5654 22.778 10.6245 22.7807 10.6841V10.6841Z" fill="url(#paint9_linear_701_173)"/>
<defs>
<linearGradient id="paint0_linear_701_173" x1="38.0646" y1="7.76856" x2="155.935" y2="19.7705" gradientUnits="userSpaceOnUse">
<stop stop-color="#F3A50D"/>
<stop offset="1" stop-color="#D58000"/>
</linearGradient>
<linearGradient id="paint1_linear_701_173" x1="38.0646" y1="7.76856" x2="155.935" y2="19.7705" gradientUnits="userSpaceOnUse">
<stop stop-color="#F3A50D"/>
<stop offset="1" stop-color="#D58000"/>
</linearGradient>
<linearGradient id="paint2_linear_701_173" x1="38.0646" y1="7.76856" x2="155.935" y2="19.7705" gradientUnits="userSpaceOnUse">
<stop stop-color="#F3A50D"/>
<stop offset="1" stop-color="#D58000"/>
</linearGradient>
<linearGradient id="paint3_linear_701_173" x1="38.0646" y1="7.76856" x2="155.935" y2="19.7705" gradientUnits="userSpaceOnUse">
<stop stop-color="#F3A50D"/>
<stop offset="1" stop-color="#D58000"/>
</linearGradient>
<linearGradient id="paint4_linear_701_173" x1="38.0646" y1="7.76856" x2="155.935" y2="19.7705" gradientUnits="userSpaceOnUse">
<stop stop-color="#F3A50D"/>
<stop offset="1" stop-color="#D58000"/>
</linearGradient>
<linearGradient id="paint5_linear_701_173" x1="38.0646" y1="7.76856" x2="155.935" y2="19.7705" gradientUnits="userSpaceOnUse">
<stop stop-color="#F3A50D"/>
<stop offset="1" stop-color="#D58000"/>
</linearGradient>
<linearGradient id="paint6_linear_701_173" x1="38.0646" y1="7.76856" x2="155.935" y2="19.7705" gradientUnits="userSpaceOnUse">
<stop stop-color="#F3A50D"/>
<stop offset="1" stop-color="#D58000"/>
</linearGradient>
<linearGradient id="paint7_linear_701_173" x1="38.0646" y1="7.76856" x2="155.935" y2="19.7705" gradientUnits="userSpaceOnUse">
<stop stop-color="#F3A50D"/>
<stop offset="1" stop-color="#D58000"/>
</linearGradient>
<linearGradient id="paint8_linear_701_173" x1="0.682647" y1="3.72142" x2="31.0924" y2="4.24456" gradientUnits="userSpaceOnUse">
<stop stop-color="#F3A50D"/>
<stop offset="1" stop-color="#D58000"/>
</linearGradient>
<linearGradient id="paint9_linear_701_173" x1="6.73716" y1="7.56935" x2="23.2112" y2="7.89503" gradientUnits="userSpaceOnUse">
<stop stop-color="#F3A50D"/>
<stop offset="1" stop-color="#D58000"/>
</linearGradient>
</defs>
</svg>
