<svg width="37" height="37" viewBox="0 0 37 37" fill="none" xmlns="http://www.w3.org/2000/svg">
<path d="M36 18.5C36 28.165 28.165 36 18.5 36C8.83502 36 1 28.165 1 18.5C1 8.83502 8.83502 1 18.5 1C28.165 1 36 8.83502 36 18.5Z" fill="black"/>
<path fill-rule="evenodd" clip-rule="evenodd" d="M37 18.5C37 28.7173 28.7173 37 18.5 37C8.28273 37 0 28.7173 0 18.5C0 8.28273 8.28273 0 18.5 0C28.7173 0 37 8.28273 37 18.5ZM18.5 36C28.165 36 36 28.165 36 18.5C36 8.83502 28.165 1 18.5 1C8.83502 1 1 8.83502 1 18.5C1 28.165 8.83502 36 18.5 36Z" fill="url(#paint0_linear_710_11)"/>
<path d="M11.6543 28.1808C13.4865 28.7106 15.4055 28.8925 17.3076 28.7168C20.6179 28.3835 23.5356 27.2255 25.6933 24.6545C29.3758 20.265 28.2985 13.0894 22.4442 10.3049C21.5527 9.89157 20.6074 9.59961 19.6349 9.43711C16.2036 8.83198 12.4269 10.4508 10.7168 13.2368C10.1326 14.1607 9.74456 15.1902 9.57593 16.2639C9.40731 17.3376 9.46152 18.4335 9.73534 19.4863C10.3226 21.8884 11.7768 23.5532 14.2627 24.2152C15.7419 24.6099 17.2291 24.4487 18.6801 24.0478C20.1908 23.6285 21.4471 22.8176 22.2526 21.4491C22.5605 20.9146 22.7925 20.3416 22.942 19.7458C23.019 19.4586 22.9624 19.368 22.6421 19.3711C21.4251 19.388 20.2065 19.3711 18.9894 19.3849C18.6879 19.3849 18.578 19.3127 18.5921 19.004C18.6173 18.5049 18.6047 18.0042 18.5921 17.505C18.5921 17.2992 18.6424 17.2193 18.8732 17.2193C20.9817 17.2286 23.0896 17.2286 25.1971 17.2193C25.4122 17.2193 25.5001 17.27 25.4939 17.4958C25.4483 19.0178 25.2096 20.4831 24.5124 21.8776C24.1796 22.5992 23.7445 23.2714 23.22 23.8742C21.6324 25.5913 19.6254 26.4299 17.2778 26.585C14.5045 26.7693 12.0249 26.1012 9.96932 24.2244C7.7614 22.2032 6.78621 19.6859 7.03903 16.7586C7.34054 13.2676 9.13232 10.6151 12.1066 8.73215C15.8362 6.36385 21.2146 6.42836 24.8532 8.89956C28.7618 11.5535 30.5551 15.2227 30.1594 19.8764C30.0296 21.369 29.5716 22.8165 28.8167 24.12C27.9452 25.6343 26.8428 26.9629 25.3808 27.9781C22.9452 29.6675 20.2442 30.4216 17.2542 30.1636C15.2429 29.9908 13.3126 29.3073 11.6543 28.1808Z" fill="url(#paint1_linear_710_11)"/>
<path d="M24.4553 14.7844C23.6028 14.7844 22.7657 14.7844 21.9424 14.7844C21.778 14.7844 21.6966 14.6615 21.5921 14.574C20.8225 13.9134 19.8574 13.5235 18.8449 13.4641C17.8324 13.4048 16.8283 13.6793 15.9868 14.2455C15.1453 14.8116 14.5128 15.6383 14.1862 16.5985C13.8597 17.5588 13.8572 18.5997 14.1792 19.5615C14.4965 20.5186 15.1262 21.3414 15.9672 21.8978C16.0716 21.9685 16.1761 22.0422 16.2744 22.1159C16.2744 22.1159 16.2744 22.1374 16.282 22.1466C15.5373 22.2585 14.7763 22.1346 14.1055 21.7922C13.4348 21.4498 12.888 20.9061 12.5418 20.2373C11.5664 18.3649 11.7215 16.4664 12.6524 14.6339C13.6708 12.6293 15.3758 11.5418 17.5861 11.2991C20.4539 10.9796 22.7196 12.0241 24.3201 14.4495C24.3616 14.5141 24.4 14.5816 24.4353 14.6492C24.4466 14.6935 24.4533 14.7388 24.4553 14.7844Z" fill="url(#paint2_linear_710_11)"/>
<defs>
<linearGradient id="paint0_linear_710_11" x1="0.833731" y1="3.90427" x2="37.9738" y2="4.54319" gradientUnits="userSpaceOnUse">
<stop stop-color="#F3A50D"/>
<stop offset="1" stop-color="#D58000"/>
</linearGradient>
<linearGradient id="paint1_linear_710_11" x1="0.833731" y1="3.90427" x2="37.9738" y2="4.54319" gradientUnits="userSpaceOnUse">
<stop stop-color="#F3A50D"/>
<stop offset="1" stop-color="#D58000"/>
</linearGradient>
<linearGradient id="paint2_linear_710_11" x1="0.833731" y1="3.90427" x2="37.9738" y2="4.54319" gradientUnits="userSpaceOnUse">
<stop stop-color="#F3A50D"/>
<stop offset="1" stop-color="#D58000"/>
</linearGradient>
</defs>
</svg>
