<svg width="824" height="453" viewBox="0 0 824 453" fill="none" xmlns="http://www.w3.org/2000/svg">
<g clip-path="url(#clip0_1101_76)">
<path opacity="0.5" d="M238.277 246.568H134.612V426.337H238.277H266.623H388.495V112.856H238.277V246.568Z" fill="#222A33"/>
<path opacity="0.5" d="M559.371 257.461V0H409.152V426.337H553.447H559.371H669.643V257.461H559.371Z" fill="#222A33"/>
<path d="M824 420.644H0V424.44H824V420.644Z" fill="url(#paint0_linear_1101_76)"/>
<path d="M542.643 156.864H180.539V441.31H542.643V156.864Z" fill="#222A33"/>
<path d="M542.643 189.087H180.539V441.31H542.643V189.087Z" fill="#E6E6E6"/>
<path d="M193.507 177.644C196.422 177.644 198.785 175.282 198.785 172.368C198.785 169.454 196.422 167.093 193.507 167.093C190.592 167.093 188.229 169.454 188.229 172.368C188.229 175.282 190.592 177.644 193.507 177.644Z" fill="#E6E6E6"/>
<path d="M221.264 172.368C221.264 175.291 218.891 177.644 215.986 177.644C213.081 177.644 210.708 175.272 210.708 172.368C210.708 169.465 213.081 167.093 215.986 167.093C218.891 167.093 221.264 169.465 221.264 172.368Z" fill="#E6E6E6"/>
<path d="M243.725 172.368C243.725 175.291 241.352 177.644 238.447 177.644C235.542 177.644 233.169 175.272 233.169 172.368C233.169 169.465 235.542 167.093 238.447 167.093C241.352 167.093 243.725 169.465 243.725 172.368Z" fill="#E6E6E6"/>
<path d="M418.076 181.857H269.034C264.06 181.857 260.016 177.814 260.016 172.843C260.016 167.871 264.06 163.828 269.034 163.828H418.076C423.05 163.828 427.094 167.871 427.094 172.843C427.094 177.814 423.05 181.857 418.076 181.857Z" fill="#E6E6E6"/>
<path d="M520.582 181.857H450.029C445.055 181.857 441.011 177.814 441.011 172.843C441.011 167.871 445.055 163.828 450.029 163.828H520.582C525.556 163.828 529.6 167.871 529.6 172.843C529.6 177.814 525.556 181.857 520.582 181.857Z" fill="#E6E6E6"/>
<path d="M338.257 301.469H209.436V374.132H338.257V301.469Z" fill="#222A33"/>
<path d="M338.257 212.277H209.436V284.94H338.257V212.277Z" fill="#222A33"/>
<path d="M337.137 392.501H210.557V398.194H337.137V392.501Z" fill="#222A33"/>
<path d="M337.137 411.478H210.557V417.171H337.137V411.478Z" fill="#222A33"/>
<path d="M509.38 392.501H382.799V398.194H509.38V392.501Z" fill="#222A33"/>
<path d="M509.38 411.478H382.799V417.171H509.38V411.478Z" fill="#222A33"/>
<path d="M544.542 443.227H178.641V154.966H544.542V443.208V443.227ZM182.438 439.431H540.745V158.762H182.438V439.412V439.431Z" fill="url(#paint1_linear_1101_76)"/>
<path d="M631.309 400.415H594.153V87.9205H631.309V400.415ZM597.951 396.619H627.512V91.7159H597.951V396.619Z" fill="url(#paint2_linear_1101_76)"/>
<path d="M636.379 382.33H589.065V416.223H636.379V382.33Z" fill="#222A33"/>
<path d="M629.601 364.358H596.698C595.938 364.358 595.255 363.903 594.951 363.22C594.647 362.537 594.78 361.721 595.293 361.17L626.943 327.012L629.734 329.593L601.046 360.563H629.601V364.358Z" fill="url(#paint3_linear_1101_76)"/>
<path d="M629.601 330.124H596.698C595.938 330.124 595.255 329.668 594.951 328.985C594.647 328.302 594.78 327.486 595.293 326.936L626.943 292.777L629.734 295.358L601.046 326.329H629.601V330.124Z" fill="url(#paint4_linear_1101_76)"/>
<path d="M629.601 295.908H596.698C595.938 295.908 595.255 295.453 594.951 294.77C594.647 294.087 594.78 293.271 595.293 292.72L626.943 258.562L629.734 261.143L601.046 292.113H629.601V295.908Z" fill="url(#paint5_linear_1101_76)"/>
<path d="M629.601 261.693H596.698C595.938 261.693 595.255 261.237 594.951 260.554C594.647 259.871 594.78 259.055 595.293 258.505L626.943 224.346L629.734 226.927L601.046 257.897H629.601V261.693Z" fill="url(#paint6_linear_1101_76)"/>
<path d="M629.601 227.458H596.698C595.938 227.458 595.255 227.003 594.951 226.32C594.647 225.637 594.78 224.821 595.293 224.27L626.943 190.112L629.734 192.692L601.046 223.663H629.601V227.458Z" fill="url(#paint7_linear_1101_76)"/>
<path d="M629.601 193.243H596.698C595.938 193.243 595.255 192.787 594.951 192.104C594.647 191.421 594.78 190.605 595.293 190.055L626.943 155.896L629.734 158.477L601.046 189.447H629.601V193.243Z" fill="url(#paint8_linear_1101_76)"/>
<path d="M629.601 159.008H596.698C595.938 159.008 595.255 158.553 594.951 157.87C594.647 157.187 594.78 156.37 595.293 155.82L626.943 121.662L629.734 124.242L601.046 155.213H629.601V159.008Z" fill="url(#paint9_linear_1101_76)"/>
<path d="M629.601 124.793H596.698C595.938 124.793 595.255 124.337 594.951 123.654C594.647 122.971 594.78 122.155 595.293 121.605L626.943 87.446L629.734 90.0269L601.046 120.997H629.601V124.793Z" fill="url(#paint10_linear_1101_76)"/>
<path d="M631.252 74.7314H571.028V125.476H631.252V74.7314Z" fill="url(#paint11_linear_1101_76)"/>
<path d="M721.741 74.7314H661.517V103.88H721.741V74.7314Z" fill="url(#paint12_linear_1101_76)"/>
<path d="M720.734 78.4319H423.278C422.233 78.4319 421.379 77.578 421.379 76.5342C421.379 75.4905 422.233 74.6365 423.278 74.6365H720.734C721.778 74.6365 722.633 75.4905 722.633 76.5342C722.633 77.578 721.778 78.4319 720.734 78.4319Z" fill="url(#paint13_linear_1101_76)"/>
<path d="M439.017 85.3965H437.118V208.747H439.017V85.3965Z" fill="url(#paint14_linear_1101_76)"/>
<path d="M652.517 410.169H572.927V425.085H652.517V410.169Z" fill="url(#paint15_linear_1101_76)"/>
<path d="M601.349 77.9385C601.102 77.9385 600.855 77.8437 600.684 77.6539L584.831 61.8081H439.416L424.512 76.705C424.132 77.0846 423.543 77.0846 423.164 76.705C422.784 76.3255 422.784 75.7372 423.164 75.3577L438.637 59.8914H585.609L602.032 76.3065C602.412 76.6861 602.412 77.2743 602.032 77.6539C601.843 77.8437 601.596 77.9385 601.368 77.9385H601.349Z" fill="url(#paint16_linear_1101_76)"/>
<path d="M722.006 77.9385C721.665 77.9385 721.342 77.7487 721.171 77.4261L705.298 47.1199H666.813L651.89 76.4583C651.644 76.9327 651.074 77.1035 650.618 76.8758C650.144 76.6481 649.973 76.0598 650.201 75.6043L665.655 45.2222H706.457L722.861 76.5532C723.108 77.0086 722.918 77.5969 722.462 77.8247C722.329 77.9006 722.177 77.9385 722.025 77.9385H722.006Z" fill="url(#paint17_linear_1101_76)"/>
<path d="M445.017 85.3965C445.017 89.2488 441.903 92.3611 438.049 92.3611C434.195 92.3611 431.081 89.2488 431.081 85.3965C431.081 81.5442 434.195 78.4319 438.049 78.4319C441.903 78.4319 445.017 81.5442 445.017 85.3965Z" fill="#222A33"/>
<path d="M512.332 206.243L353.354 220.928L360.925 302.807L519.902 288.122L512.332 206.243Z" fill="#222A33"/>
<path d="M479.211 61.7891C478.812 61.7891 478.433 61.5235 478.3 61.1249C478.148 60.6315 478.433 60.1002 478.926 59.9484L619.481 17.1173C619.69 17.0604 619.918 17.0604 620.126 17.1552L686.749 45.2602C687.224 45.4689 687.451 46.0193 687.262 46.4937C687.053 46.9681 686.502 47.1958 686.027 47.0061L619.728 19.034L479.496 61.7702C479.496 61.7702 479.306 61.8081 479.211 61.8081V61.7891Z" fill="url(#paint18_linear_1101_76)"/>
<path d="M597.666 78.0714C597.438 78.0714 597.21 78.0334 596.982 77.9385C595.995 77.559 595.501 76.4773 595.881 75.4905L618.019 17.2881C618.323 16.491 619.101 15.9976 619.955 16.0735C620.791 16.1494 621.493 16.7567 621.664 17.5917L633.113 74.3709C633.322 75.3956 632.657 76.4014 631.632 76.6102C630.607 76.8189 629.6 76.1547 629.392 75.13L619.253 24.8029L599.45 76.8758C599.166 77.6349 598.444 78.0904 597.685 78.0904L597.666 78.0714Z" fill="url(#paint19_linear_1101_76)"/>
<path d="M623.62 17.9523C623.62 20.0587 621.911 21.7856 619.784 21.7856C617.658 21.7856 615.949 20.0777 615.949 17.9523C615.949 15.8268 617.658 14.1189 619.784 14.1189C621.911 14.1189 623.62 15.8268 623.62 17.9523Z" fill="#222A33"/>
<path d="M459.2 78.1093C458.991 78.1093 458.782 78.0334 458.611 77.9006L439.967 62.8328V76.9138C439.967 77.4451 439.549 77.8626 439.018 77.8626C438.486 77.8626 438.068 77.4451 438.068 76.9138V60.8403C438.068 60.4797 438.277 60.1381 438.6 59.9863C438.923 59.8345 439.321 59.8724 439.606 60.1002L459.789 76.4204C460.187 76.743 460.263 77.3503 459.921 77.7488C459.732 77.9765 459.466 78.1093 459.181 78.1093H459.2Z" fill="url(#paint20_linear_1101_76)"/>
<path d="M477.236 78.1093C477.027 78.1093 476.818 78.0334 476.648 77.9006L458.003 62.8328V76.9138C458.003 77.4451 457.585 77.8626 457.054 77.8626C456.522 77.8626 456.104 77.4451 456.104 76.9138V60.8403C456.104 60.4797 456.313 60.1381 456.636 59.9863C456.959 59.8345 457.358 59.8724 457.642 60.1002L477.825 76.4204C478.223 76.743 478.299 77.3503 477.958 77.7488C477.768 77.9765 477.502 78.1093 477.217 78.1093H477.236Z" fill="url(#paint21_linear_1101_76)"/>
<path d="M495.273 78.1093C495.064 78.1093 494.856 78.0334 494.685 77.9006L476.04 62.8328V76.9138C476.04 77.4451 475.623 77.8626 475.091 77.8626C474.559 77.8626 474.142 77.4451 474.142 76.9138V60.8403C474.142 60.4797 474.35 60.1381 474.673 59.9863C474.996 59.8345 475.395 59.8724 475.679 60.1002L495.862 76.4204C496.261 76.743 496.336 77.3503 495.995 77.7488C495.805 77.9765 495.539 78.1093 495.254 78.1093H495.273Z" fill="url(#paint22_linear_1101_76)"/>
<path d="M513.291 78.1093C513.082 78.1093 512.873 78.0334 512.702 77.9006L494.058 62.8328V76.9138C494.058 77.4451 493.64 77.8626 493.108 77.8626C492.577 77.8626 492.159 77.4451 492.159 76.9138V60.8403C492.159 60.4797 492.368 60.1381 492.691 59.9863C493.014 59.8345 493.412 59.8724 493.697 60.1002L513.879 76.4204C514.278 76.743 514.354 77.3503 514.012 77.7488C513.822 77.9765 513.557 78.1093 513.272 78.1093H513.291Z" fill="url(#paint23_linear_1101_76)"/>
<path d="M531.328 78.1093C531.119 78.1093 530.91 78.0334 530.739 77.9006L512.095 62.8328V76.9138C512.095 77.4451 511.677 77.8626 511.146 77.8626C510.614 77.8626 510.196 77.4451 510.196 76.9138V60.8403C510.196 60.4797 510.405 60.1381 510.728 59.9863C511.051 59.8345 511.449 59.8724 511.734 60.1002L531.916 76.4204C532.315 76.743 532.391 77.3503 532.049 77.7488C531.86 77.9765 531.594 78.1093 531.309 78.1093H531.328Z" fill="url(#paint24_linear_1101_76)"/>
<path d="M549.345 78.1093C549.137 78.1093 548.928 78.0334 548.757 77.9006L530.112 62.8328V76.9138C530.112 77.4451 529.695 77.8626 529.163 77.8626C528.632 77.8626 528.214 77.4451 528.214 76.9138V60.8403C528.214 60.4797 528.423 60.1381 528.745 59.9863C529.068 59.8345 529.467 59.8724 529.752 60.1002L549.934 76.4204C550.333 76.743 550.409 77.3503 550.067 77.7488C549.877 77.9765 549.611 78.1093 549.326 78.1093H549.345Z" fill="url(#paint25_linear_1101_76)"/>
<path d="M567.383 78.1093C567.174 78.1093 566.965 78.0334 566.794 77.9006L548.15 62.8328V76.9138C548.15 77.4451 547.732 77.8626 547.2 77.8626C546.669 77.8626 546.251 77.4451 546.251 76.9138V60.8403C546.251 60.4797 546.46 60.1381 546.783 59.9863C547.105 59.8345 547.504 59.8724 547.789 60.1002L567.971 76.4204C568.37 76.743 568.446 77.3503 568.104 77.7488C567.914 77.9765 567.648 78.1093 567.364 78.1093H567.383Z" fill="url(#paint26_linear_1101_76)"/>
<path d="M585.401 78.1093C585.192 78.1093 584.983 78.0334 584.813 77.9006L566.168 62.8328V76.9138C566.168 77.4451 565.75 77.8626 565.219 77.8626C564.687 77.8626 564.27 77.4451 564.27 76.9138V60.8403C564.27 60.4797 564.478 60.1381 564.801 59.9863C565.124 59.8345 565.523 59.8724 565.807 60.1002L585.99 76.4204C586.388 76.743 586.464 77.3503 586.123 77.7488C585.933 77.9765 585.667 78.1093 585.382 78.1093H585.401Z" fill="url(#paint27_linear_1101_76)"/>
<path d="M691.989 78.1093C691.723 78.1093 691.457 77.9955 691.267 77.7677L667.06 49.2074V76.9138C667.06 77.4451 666.642 77.8626 666.11 77.8626C665.579 77.8626 665.161 77.4451 665.161 76.9138V46.6265C665.161 46.228 665.408 45.8674 665.788 45.7346C666.167 45.6017 666.585 45.7156 666.832 46.0192L692.71 76.5532C693.052 76.9517 692.995 77.559 692.596 77.8816C692.425 78.0334 692.197 78.1093 691.989 78.1093Z" fill="url(#paint28_linear_1101_76)"/>
<path d="M710.614 78.1094C710.311 78.1094 710.007 77.9575 709.817 77.6919L691.362 49.7957V76.9328C691.362 77.4641 690.945 77.8816 690.413 77.8816C689.882 77.8816 689.464 77.4641 689.464 76.9328V46.6455C689.464 46.228 689.73 45.8484 690.147 45.7346C690.546 45.6207 690.983 45.7725 691.211 46.1141L711.393 76.6481C711.678 77.0846 711.564 77.6729 711.127 77.9575C710.956 78.0714 710.785 78.1094 710.595 78.1094H710.614Z" fill="url(#paint29_linear_1101_76)"/>
<path d="M444.03 211.271C444.03 214.573 441.353 217.249 438.049 217.249C434.745 217.249 432.068 214.573 432.068 211.271C432.068 207.969 434.745 205.293 438.049 205.293C441.353 205.293 444.03 207.969 444.03 211.271Z" fill="url(#paint30_linear_1101_76)"/>
<path d="M117.942 330.503H114.145V421.593H117.942V330.503Z" fill="url(#paint31_linear_1101_76)"/>
<path d="M45.7943 330.503H41.9971V421.593H45.7943V330.503Z" fill="url(#paint32_linear_1101_76)"/>
<path d="M127.852 339.043H32.5039V374.151H127.852V339.043Z" fill="#E3EBFF"/>
<path d="M127.834 374.151V340.941L110.31 374.151H127.834Z" fill="url(#paint33_linear_1101_76)"/>
<path d="M67.5908 374.151H87.982L106.512 339.043H86.1213L67.5908 374.151Z" fill="url(#paint34_linear_1101_76)"/>
<path d="M43.402 339.043L32.5039 359.709V374.151H45.2626L63.7931 339.043H43.402Z" fill="url(#paint35_linear_1101_76)"/>
<path d="M132.182 395.044H27.7578V398.84H132.182V395.044Z" fill="url(#paint36_linear_1101_76)"/>
<path d="M778.642 330.503H774.845V421.593H778.642V330.503Z" fill="url(#paint37_linear_1101_76)"/>
<path d="M706.495 330.503H702.697V421.593H706.495V330.503Z" fill="url(#paint38_linear_1101_76)"/>
<path d="M788.553 339.043H693.204V374.151H788.553V339.043Z" fill="#E3EBFF"/>
<path d="M788.553 374.151V340.941L771.029 374.151H788.553Z" fill="url(#paint39_linear_1101_76)"/>
<path d="M728.31 374.151H748.701L767.231 339.043H746.84L728.31 374.151Z" fill="url(#paint40_linear_1101_76)"/>
<path d="M704.121 339.043L693.204 359.709V374.151H705.982L724.512 339.043H704.121Z" fill="url(#paint41_linear_1101_76)"/>
<path d="M792.882 395.044H688.458V398.84H792.882V395.044Z" fill="url(#paint42_linear_1101_76)"/>
<path d="M173.723 447.838H130.473C129.049 447.838 127.891 448.996 127.891 450.419C127.891 451.842 129.049 453 130.473 453H173.723C175.147 453 176.305 451.842 176.305 450.419C176.305 448.996 175.147 447.838 173.723 447.838Z" fill="url(#paint43_linear_1101_76)"/>
<path d="M155.61 411.099C155.401 410.548 154.87 410.169 154.281 410.169H149.326C148.718 410.169 148.187 410.548 147.997 411.118L134.042 451.026H170.154L155.61 411.099Z" fill="url(#paint44_linear_1101_76)"/>
<path d="M145.415 418.5L143.213 424.8H160.604L158.307 418.5H145.415Z" fill="#ECEFF1"/>
<path d="M139.795 434.554L137.593 440.855H166.452L164.154 434.554H139.795Z" fill="#ECEFF1"/>
<path opacity="0.5" d="M167.249 111.85C164.079 111.85 161.155 112.856 158.743 114.545V110.37C158.743 98.3198 148.966 88.5467 136.909 88.5467C124.853 88.5467 115.075 98.3198 115.075 110.37V118.625C113.101 116.747 110.443 115.589 107.5 115.589C101.405 115.589 96.4688 120.523 96.4688 126.615H182.02C182.02 118.454 175.413 111.85 167.249 111.85Z" fill="#D4E0FF"/>
<path opacity="0.5" d="M343.555 52.3765C341.258 52.3765 339.112 53.1166 337.365 54.3501V51.2948C337.365 42.5274 330.246 35.4111 321.474 35.4111C312.702 35.4111 305.582 42.5274 305.582 51.2948V57.2916C304.14 55.9252 302.203 55.0902 300.058 55.0902C295.615 55.0902 292.026 58.6769 292.026 63.1175H354.301C354.301 57.1777 349.498 52.3765 343.555 52.3765Z" fill="#D4E0FF"/>
</g>
<defs>
<linearGradient id="paint0_linear_1101_76" x1="412" y1="420.644" x2="412" y2="424.44" gradientUnits="userSpaceOnUse">
<stop stop-color="#E1B133"/>
<stop offset="1" stop-color="#C19420"/>
</linearGradient>
<linearGradient id="paint1_linear_1101_76" x1="361.591" y1="154.966" x2="361.591" y2="443.227" gradientUnits="userSpaceOnUse">
<stop stop-color="#E1B133"/>
<stop offset="1" stop-color="#C19420"/>
</linearGradient>
<linearGradient id="paint2_linear_1101_76" x1="612.731" y1="87.9205" x2="612.731" y2="400.415" gradientUnits="userSpaceOnUse">
<stop stop-color="#E1B133"/>
<stop offset="1" stop-color="#C19420"/>
</linearGradient>
<linearGradient id="paint3_linear_1101_76" x1="612.262" y1="327.012" x2="612.262" y2="364.358" gradientUnits="userSpaceOnUse">
<stop stop-color="#E1B133"/>
<stop offset="1" stop-color="#C19420"/>
</linearGradient>
<linearGradient id="paint4_linear_1101_76" x1="612.262" y1="292.777" x2="612.262" y2="330.124" gradientUnits="userSpaceOnUse">
<stop stop-color="#E1B133"/>
<stop offset="1" stop-color="#C19420"/>
</linearGradient>
<linearGradient id="paint5_linear_1101_76" x1="612.262" y1="258.562" x2="612.262" y2="295.908" gradientUnits="userSpaceOnUse">
<stop stop-color="#E1B133"/>
<stop offset="1" stop-color="#C19420"/>
</linearGradient>
<linearGradient id="paint6_linear_1101_76" x1="612.262" y1="224.346" x2="612.262" y2="261.693" gradientUnits="userSpaceOnUse">
<stop stop-color="#E1B133"/>
<stop offset="1" stop-color="#C19420"/>
</linearGradient>
<linearGradient id="paint7_linear_1101_76" x1="612.262" y1="190.112" x2="612.262" y2="227.458" gradientUnits="userSpaceOnUse">
<stop stop-color="#E1B133"/>
<stop offset="1" stop-color="#C19420"/>
</linearGradient>
<linearGradient id="paint8_linear_1101_76" x1="612.262" y1="155.896" x2="612.262" y2="193.243" gradientUnits="userSpaceOnUse">
<stop stop-color="#E1B133"/>
<stop offset="1" stop-color="#C19420"/>
</linearGradient>
<linearGradient id="paint9_linear_1101_76" x1="612.262" y1="121.662" x2="612.262" y2="159.008" gradientUnits="userSpaceOnUse">
<stop stop-color="#E1B133"/>
<stop offset="1" stop-color="#C19420"/>
</linearGradient>
<linearGradient id="paint10_linear_1101_76" x1="612.262" y1="87.446" x2="612.262" y2="124.793" gradientUnits="userSpaceOnUse">
<stop stop-color="#E1B133"/>
<stop offset="1" stop-color="#C19420"/>
</linearGradient>
<linearGradient id="paint11_linear_1101_76" x1="572.385" y1="80.086" x2="632.83" y2="81.3201" gradientUnits="userSpaceOnUse">
<stop stop-color="#F3A50D"/>
<stop offset="1" stop-color="#D58000"/>
</linearGradient>
<linearGradient id="paint12_linear_1101_76" x1="662.874" y1="77.8072" x2="723.267" y2="79.9538" gradientUnits="userSpaceOnUse">
<stop stop-color="#F3A50D"/>
<stop offset="1" stop-color="#D58000"/>
</linearGradient>
<linearGradient id="paint13_linear_1101_76" x1="572.006" y1="74.6365" x2="572.006" y2="78.4319" gradientUnits="userSpaceOnUse">
<stop stop-color="#E1B133"/>
<stop offset="1" stop-color="#C19420"/>
</linearGradient>
<linearGradient id="paint14_linear_1101_76" x1="438.067" y1="85.3965" x2="438.067" y2="208.747" gradientUnits="userSpaceOnUse">
<stop stop-color="#E1B133"/>
<stop offset="1" stop-color="#C19420"/>
</linearGradient>
<linearGradient id="paint15_linear_1101_76" x1="612.722" y1="410.169" x2="612.722" y2="425.085" gradientUnits="userSpaceOnUse">
<stop stop-color="#E1B133"/>
<stop offset="1" stop-color="#C19420"/>
</linearGradient>
<linearGradient id="paint16_linear_1101_76" x1="512.598" y1="59.8914" x2="512.598" y2="77.9385" gradientUnits="userSpaceOnUse">
<stop stop-color="#E1B133"/>
<stop offset="1" stop-color="#C19420"/>
</linearGradient>
<linearGradient id="paint17_linear_1101_76" x1="686.535" y1="45.2222" x2="686.535" y2="77.9385" gradientUnits="userSpaceOnUse">
<stop stop-color="#E1B133"/>
<stop offset="1" stop-color="#C19420"/>
</linearGradient>
<linearGradient id="paint18_linear_1101_76" x1="582.794" y1="17.0784" x2="582.794" y2="61.8081" gradientUnits="userSpaceOnUse">
<stop stop-color="#E1B133"/>
<stop offset="1" stop-color="#C19420"/>
</linearGradient>
<linearGradient id="paint19_linear_1101_76" x1="614.452" y1="16.0659" x2="614.452" y2="78.0904" gradientUnits="userSpaceOnUse">
<stop stop-color="#E1B133"/>
<stop offset="1" stop-color="#C19420"/>
</linearGradient>
<linearGradient id="paint20_linear_1101_76" x1="449.103" y1="59.8952" x2="449.103" y2="78.1093" gradientUnits="userSpaceOnUse">
<stop stop-color="#E1B133"/>
<stop offset="1" stop-color="#C19420"/>
</linearGradient>
<linearGradient id="paint21_linear_1101_76" x1="467.139" y1="59.8952" x2="467.139" y2="78.1093" gradientUnits="userSpaceOnUse">
<stop stop-color="#E1B133"/>
<stop offset="1" stop-color="#C19420"/>
</linearGradient>
<linearGradient id="paint22_linear_1101_76" x1="485.177" y1="59.8952" x2="485.177" y2="78.1093" gradientUnits="userSpaceOnUse">
<stop stop-color="#E1B133"/>
<stop offset="1" stop-color="#C19420"/>
</linearGradient>
<linearGradient id="paint23_linear_1101_76" x1="503.194" y1="59.8952" x2="503.194" y2="78.1093" gradientUnits="userSpaceOnUse">
<stop stop-color="#E1B133"/>
<stop offset="1" stop-color="#C19420"/>
</linearGradient>
<linearGradient id="paint24_linear_1101_76" x1="521.231" y1="59.8952" x2="521.231" y2="78.1093" gradientUnits="userSpaceOnUse">
<stop stop-color="#E1B133"/>
<stop offset="1" stop-color="#C19420"/>
</linearGradient>
<linearGradient id="paint25_linear_1101_76" x1="539.249" y1="59.8952" x2="539.249" y2="78.1093" gradientUnits="userSpaceOnUse">
<stop stop-color="#E1B133"/>
<stop offset="1" stop-color="#C19420"/>
</linearGradient>
<linearGradient id="paint26_linear_1101_76" x1="557.286" y1="59.8952" x2="557.286" y2="78.1093" gradientUnits="userSpaceOnUse">
<stop stop-color="#E1B133"/>
<stop offset="1" stop-color="#C19420"/>
</linearGradient>
<linearGradient id="paint27_linear_1101_76" x1="575.304" y1="59.8952" x2="575.304" y2="78.1093" gradientUnits="userSpaceOnUse">
<stop stop-color="#E1B133"/>
<stop offset="1" stop-color="#C19420"/>
</linearGradient>
<linearGradient id="paint28_linear_1101_76" x1="679.048" y1="45.6797" x2="679.048" y2="78.1093" gradientUnits="userSpaceOnUse">
<stop stop-color="#E1B133"/>
<stop offset="1" stop-color="#C19420"/>
</linearGradient>
<linearGradient id="paint29_linear_1101_76" x1="700.506" y1="45.6972" x2="700.506" y2="78.1094" gradientUnits="userSpaceOnUse">
<stop stop-color="#E1B133"/>
<stop offset="1" stop-color="#C19420"/>
</linearGradient>
<linearGradient id="paint30_linear_1101_76" x1="432.338" y1="206.555" x2="444.344" y2="206.761" gradientUnits="userSpaceOnUse">
<stop stop-color="#F3A50D"/>
<stop offset="1" stop-color="#D58000"/>
</linearGradient>
<linearGradient id="paint31_linear_1101_76" x1="116.043" y1="330.503" x2="116.043" y2="421.593" gradientUnits="userSpaceOnUse">
<stop stop-color="#E1B133"/>
<stop offset="1" stop-color="#C19420"/>
</linearGradient>
<linearGradient id="paint32_linear_1101_76" x1="43.8957" y1="330.503" x2="43.8957" y2="421.593" gradientUnits="userSpaceOnUse">
<stop stop-color="#E1B133"/>
<stop offset="1" stop-color="#C19420"/>
</linearGradient>
<linearGradient id="paint33_linear_1101_76" x1="110.704" y1="344.445" x2="128.299" y2="344.605" gradientUnits="userSpaceOnUse">
<stop stop-color="#F3A50D"/>
<stop offset="1" stop-color="#D58000"/>
</linearGradient>
<linearGradient id="paint34_linear_1101_76" x1="68.4679" y1="342.748" x2="107.534" y2="343.493" gradientUnits="userSpaceOnUse">
<stop stop-color="#F3A50D"/>
<stop offset="1" stop-color="#D58000"/>
</linearGradient>
<linearGradient id="paint35_linear_1101_76" x1="33.209" y1="342.748" x2="64.6185" y2="343.229" gradientUnits="userSpaceOnUse">
<stop stop-color="#F3A50D"/>
<stop offset="1" stop-color="#D58000"/>
</linearGradient>
<linearGradient id="paint36_linear_1101_76" x1="79.9698" y1="395.044" x2="79.9698" y2="398.84" gradientUnits="userSpaceOnUse">
<stop stop-color="#E1B133"/>
<stop offset="1" stop-color="#C19420"/>
</linearGradient>
<linearGradient id="paint37_linear_1101_76" x1="776.743" y1="330.503" x2="776.743" y2="421.593" gradientUnits="userSpaceOnUse">
<stop stop-color="#E1B133"/>
<stop offset="1" stop-color="#C19420"/>
</linearGradient>
<linearGradient id="paint38_linear_1101_76" x1="704.596" y1="330.503" x2="704.596" y2="421.593" gradientUnits="userSpaceOnUse">
<stop stop-color="#E1B133"/>
<stop offset="1" stop-color="#C19420"/>
</linearGradient>
<linearGradient id="paint39_linear_1101_76" x1="771.424" y1="344.445" x2="789.018" y2="344.605" gradientUnits="userSpaceOnUse">
<stop stop-color="#F3A50D"/>
<stop offset="1" stop-color="#D58000"/>
</linearGradient>
<linearGradient id="paint40_linear_1101_76" x1="729.187" y1="342.748" x2="768.253" y2="343.493" gradientUnits="userSpaceOnUse">
<stop stop-color="#F3A50D"/>
<stop offset="1" stop-color="#D58000"/>
</linearGradient>
<linearGradient id="paint41_linear_1101_76" x1="693.91" y1="342.748" x2="725.338" y2="343.23" gradientUnits="userSpaceOnUse">
<stop stop-color="#F3A50D"/>
<stop offset="1" stop-color="#D58000"/>
</linearGradient>
<linearGradient id="paint42_linear_1101_76" x1="740.67" y1="395.044" x2="740.67" y2="398.84" gradientUnits="userSpaceOnUse">
<stop stop-color="#E1B133"/>
<stop offset="1" stop-color="#C19420"/>
</linearGradient>
<linearGradient id="paint43_linear_1101_76" x1="128.982" y1="448.383" x2="176.36" y2="456.028" gradientUnits="userSpaceOnUse">
<stop stop-color="#F3A50D"/>
<stop offset="1" stop-color="#D58000"/>
</linearGradient>
<linearGradient id="paint44_linear_1101_76" x1="134.856" y1="414.48" x2="171.106" y2="415.031" gradientUnits="userSpaceOnUse">
<stop stop-color="#F3A50D"/>
<stop offset="1" stop-color="#D58000"/>
</linearGradient>
<clipPath id="clip0_1101_76">
<rect width="824" height="453" fill="white"/>
</clipPath>
</defs>
</svg>
