<svg width="69" height="69" viewBox="0 0 90 90" fill="none" xmlns="http://www.w3.org/2000/svg">
<path d="M7.71814 28.2955L10.1863 29.4409C10.9636 27.7773 11.8636 26.1546 12.859 24.6136L10.5818 23.1136C9.5045 24.7636 8.54996 26.5091 7.71814 28.2955Z" fill="#DE8C04"/>
<path d="M4.59546 38.1409L7.28182 38.6182C7.6091 36.8182 8.07273 35.0182 8.64546 33.2728L6.06819 32.4C5.44091 34.2818 4.95 36.2046 4.59546 38.1409Z" fill="#DE8C04"/>
<path d="M17.0727 19.3091L15.0818 17.4409C14.4273 18.1227 13.8 18.8455 13.2136 19.5546L15.3136 21.2864C15.8864 20.6182 16.4591 19.95 17.0727 19.3091Z" fill="#DE8C04"/>
<path d="M65.1136 77.5773L50.9863 73.5136C50.4954 73.3636 49.9772 73.4864 49.5954 73.8273L48.9954 74.4273L49.5272 77.3591C48.0272 77.5636 46.5 77.6727 45 77.6727C27.0818 77.6727 12.4909 63.1773 12.4909 45.3682C12.4909 44.4955 12.5318 43.6227 12.6 42.75L9.88632 42.5318C9.8045 43.4727 9.77723 44.4273 9.77723 45.3682C9.77723 64.6909 25.5818 80.4 45.0136 80.4C47.1409 80.4 49.2818 80.2091 51.3818 79.8273L52.7318 79.5818L52.2 76.6909L61.0772 79.2409L53.6863 84.7636L53.2909 82.5546L51.9409 82.8C49.7045 83.2091 47.3727 83.4273 45.0136 83.4273C23.8909 83.4273 6.69541 66.3409 6.69541 45.3409C6.69541 44.4546 6.72269 43.5682 6.79087 42.7091L4.06359 42.5182C3.99541 43.4455 3.96814 44.3864 3.96814 45.3409C3.96814 67.8409 22.3772 86.1546 45.0136 86.1546C47.0591 86.1546 49.1045 86.0046 51.0818 85.7046L51.3545 87.2727C51.45 87.7773 51.7909 88.1864 52.2681 88.3773L53.0591 88.6364L64.7591 79.8955C65.1954 79.5682 65.4136 79.0227 65.3181 78.4773L65.1136 77.5773Z" fill="#DE8C04"/>
<path d="M21.2999 23.2637L19.3226 21.3818C18.6817 22.0637 18.0545 22.7864 17.4545 23.5227L19.5817 25.2273C20.1272 24.5455 20.6999 23.8909 21.2999 23.2637Z" fill="#DE8C04"/>
<path d="M10.3636 38.8909L13.05 39.3955C13.3227 37.9227 13.7046 36.4636 14.1818 35.0455L11.6046 34.1727C11.0864 35.7136 10.6636 37.2955 10.3636 38.8909Z" fill="#DE8C04"/>
<path d="M17.6045 27.9682L15.3136 26.4955C14.4409 27.8591 13.65 29.3046 12.9681 30.7773L15.45 31.9228C16.0636 30.5591 16.7863 29.2228 17.6045 27.9682Z" fill="#DE8C04"/>
<path d="M86.0454 45.3682C86.0454 22.8682 67.6363 4.56819 44.9999 4.56819C43.6226 4.56819 42.2454 4.63637 40.8817 4.77274L40.6226 2.82274C40.5545 2.31819 40.2408 1.88183 39.7772 1.67728L38.9863 1.36365L26.9181 9.49092C26.4408 9.80456 26.1954 10.35 26.2635 10.9091L26.4408 11.8364L40.2954 16.5955C40.7726 16.7727 41.3181 16.6773 41.7135 16.35L42.3408 15.7773L41.9999 13.2C42.9954 13.1046 44.0045 13.0636 44.9999 13.0636C62.9181 13.0636 77.509 27.5455 77.509 45.3546C77.509 46.0091 77.4954 46.6637 77.4544 47.3182L80.1817 47.4818C80.2226 46.7727 80.2499 46.0636 80.2499 45.3546C80.2363 26.0455 64.4317 10.3364 44.9999 10.3364C43.4317 10.3364 41.8363 10.4455 40.2954 10.65L38.9454 10.8273L39.2726 13.3364L30.5317 10.3364L38.1817 5.19547L38.5226 7.81365L39.8726 7.63637C41.5499 7.41819 43.2681 7.29547 44.9863 7.29547C66.109 7.29547 83.3044 24.3682 83.3044 45.3682C83.3044 46.2409 83.2772 47.1273 83.209 48L85.9363 48.1773C86.0044 47.25 86.0454 46.3091 86.0454 45.3682Z" fill="#DE8C04"/>
<path d="M85.5136 51.9546L82.8273 51.5182C82.5818 53.0727 82.2273 54.6136 81.7909 56.1136L84.4091 56.8773C84.8727 55.2682 85.2409 53.6182 85.5136 51.9546Z" fill="#DE8C04"/>
<path d="M83.1545 60.4636L80.6181 59.4545C80.0318 60.9 79.3499 62.3318 78.5863 63.7091L80.9727 65.0318C81.8045 63.5591 82.5272 62.0182 83.1545 60.4636Z" fill="#DE8C04"/>
<path d="M78.9818 68.2637L76.7318 66.7228C76.2545 67.4319 75.7227 68.141 75.1772 68.8501L77.3182 70.541C77.9045 69.7773 78.4636 69.0137 78.9818 68.2637Z" fill="#DE8C04"/>
<path d="M74.0046 65.2637L71.7682 63.7091C71.4 64.2409 71.0045 64.7727 70.5955 65.2909L72.7364 66.9818C73.1864 66.4091 73.6091 65.8364 74.0046 65.2637Z" fill="#DE8C04"/>
<path d="M79.7454 51.2728L77.059 50.8228C76.8681 51.9818 76.609 53.1273 76.2817 54.2455L78.8999 54.9955C79.2408 53.7818 79.5272 52.5273 79.7454 51.2728Z" fill="#DE8C04"/>
<path d="M77.6454 58.5818L75.1363 57.5455C74.6999 58.6227 74.1818 59.6864 73.6227 60.7091L76.0227 62.0182C76.6227 60.9137 77.1681 59.7546 77.6454 58.5818Z" fill="#DE8C04"/>
</svg>
