<svg width="322" height="320" viewBox="0 0 322 320" fill="none" xmlns="http://www.w3.org/2000/svg">
<g clip-path="url(#clip0_808_148)">
<path d="M292.837 174.862C292.209 174.401 291.46 174.131 290.682 174.086C289.904 174.04 289.129 174.22 288.451 174.605C287.49 172.843 285.886 171.518 283.973 170.905C282.059 170.293 279.983 170.44 278.176 171.316C277.707 169.365 276.589 167.632 275.005 166.399C273.42 165.167 271.463 164.509 269.455 164.534C267.447 164.559 265.507 165.264 263.953 166.535C262.399 167.806 261.324 169.566 260.904 171.528C260.85 172.16 260.618 172.764 260.236 173.271C259.523 174.029 258.316 173.764 257.292 173.68C255.671 173.595 254.068 174.053 252.737 174.981C251.406 175.909 250.424 177.254 249.946 178.804L294.362 178.637C294.53 177.927 294.473 177.183 294.2 176.508C293.927 175.832 293.451 175.257 292.837 174.862Z" fill="#333333"/>
<path d="M53.477 181.987C52.7244 181.439 51.8297 181.118 50.8998 181.065C49.9699 181.011 49.0441 181.226 48.2332 181.684C47.0865 179.578 45.1712 177.995 42.8858 177.264C40.6004 176.533 38.1207 176.71 35.9624 177.758C35.4074 175.423 34.0731 173.346 32.1791 171.87C30.2851 170.393 27.9442 169.605 25.5417 169.634C23.1392 169.663 20.8182 170.508 18.9606 172.03C17.103 173.552 15.8196 175.66 15.3214 178.008C15.2642 178.759 15.0017 179.48 14.5626 180.092C13.6975 180.971 12.286 180.676 11.0414 180.585C9.10488 180.481 7.18932 181.027 5.59871 182.135C4.00809 183.243 2.83353 184.85 2.26141 186.701L55.3286 186.504C55.5229 185.652 55.4494 184.761 55.118 183.953C54.7866 183.144 54.2135 182.458 53.477 181.987Z" fill="#333333"/>
<path d="M263.257 139.976C262.792 139.637 262.239 139.438 261.664 139.404C261.09 139.371 260.517 139.504 260.016 139.787C259.307 138.485 258.122 137.506 256.71 137.054C255.297 136.601 253.763 136.708 252.428 137.354C252.081 135.912 251.253 134.631 250.082 133.72C248.91 132.81 247.463 132.324 245.978 132.342C244.493 132.361 243.059 132.882 241.91 133.822C240.762 134.762 239.967 136.063 239.656 137.513C239.617 137.979 239.449 138.426 239.17 138.802C238.639 139.347 237.751 139.165 236.992 139.105C235.793 139.042 234.608 139.38 233.623 140.067C232.639 140.753 231.912 141.748 231.559 142.894L264.395 142.773C264.517 142.247 264.473 141.695 264.269 141.195C264.065 140.694 263.712 140.269 263.257 139.976Z" fill="#333333"/>
<path d="M68.3582 47.6568C67.3548 46.9241 66.1611 46.4958 64.9202 46.4232C63.6793 46.3506 62.4437 46.6368 61.3615 47.2475C58.531 41.5254 50.6312 39.0016 44.9929 42.018C44.2491 38.9075 42.4685 36.1419 39.9434 34.1754C37.4182 32.2089 34.2986 31.1584 31.0968 31.1963C27.8949 31.2342 24.8011 32.3583 22.3233 34.384C19.8455 36.4097 18.1311 39.2166 17.4614 42.3439C17.2489 43.3292 17.1123 44.413 16.4066 45.133C15.2607 46.3002 13.3711 45.8909 11.7092 45.7772C9.12646 45.6432 6.5727 46.3731 4.45196 47.8515C2.33123 49.3299 0.764625 51.4723 0 53.9398L70.779 53.6821C71.4012 51.2871 70.3236 49.1499 68.3582 47.6568Z" fill="#333333"/>
<path d="M87.4588 146.479C86.9028 146.073 86.2412 145.835 85.5534 145.795C84.8656 145.754 84.1807 145.913 83.581 146.252C82.7337 144.685 81.3118 143.508 79.6137 142.967C77.9157 142.426 76.0737 142.563 74.4746 143.349C74.0622 141.625 73.0751 140.092 71.6753 139.002C70.2756 137.912 68.5463 137.33 66.7715 137.351C64.9967 137.372 63.2819 137.996 61.9086 139.118C60.5352 140.241 59.585 141.797 59.2139 143.531C59.1643 144.081 58.962 144.606 58.6296 145.047C57.9922 145.691 56.9373 145.479 56.0267 145.403C54.5927 145.332 53.176 145.74 52.0007 146.564C50.8255 147.387 49.959 148.579 49.5385 149.95L88.764 149.806C88.9134 149.185 88.8685 148.533 88.635 147.938C88.4016 147.343 87.9911 146.834 87.4588 146.479Z" fill="#333333"/>
<path d="M38.9751 130.321C38.4183 129.916 37.757 129.68 37.0696 129.639C36.3822 129.599 35.6977 129.757 35.0973 130.093C34.2473 128.53 32.8253 127.355 31.1283 126.814C29.4313 126.273 27.5907 126.408 25.991 127.191C25.5811 125.465 24.595 123.93 23.1949 122.838C21.7949 121.747 20.0644 121.164 18.2885 121.186C16.5126 121.208 14.7971 121.834 13.4247 122.96C12.0522 124.086 11.1046 125.645 10.7379 127.38C10.6829 127.929 10.4811 128.452 10.1536 128.896C9.51612 129.548 8.45372 129.328 7.55068 129.26C6.11589 129.184 4.6972 129.591 3.52113 130.416C2.34505 131.24 1.47938 132.434 1.06238 133.807L40.2803 133.663C40.4354 133.04 40.3932 132.383 40.1594 131.785C39.9257 131.186 39.5119 130.675 38.9751 130.321Z" fill="#333333"/>
<path d="M320.566 117.595C320.009 117.19 319.348 116.953 318.66 116.913C317.973 116.872 317.288 117.03 316.688 117.368C315.838 115.805 314.416 114.63 312.719 114.089C311.022 113.548 309.181 113.683 307.582 114.465C307.172 112.739 306.186 111.204 304.786 110.113C303.386 109.022 301.655 108.439 299.879 108.461C298.103 108.483 296.388 109.109 295.015 110.234C293.643 111.36 292.695 112.919 292.329 114.655C292.275 115.204 292.073 115.728 291.744 116.171C291.107 116.822 290.044 116.603 289.141 116.534C287.707 116.46 286.289 116.868 285.113 117.692C283.937 118.516 283.071 119.709 282.653 121.082L321.879 120.938C322.031 120.313 321.986 119.658 321.751 119.059C321.516 118.461 321.102 117.95 320.566 117.595Z" fill="#333333"/>
<path d="M160.932 13.6499C160.103 13.0398 159.114 12.6835 158.086 12.6243C157.058 12.5651 156.035 12.8056 155.142 13.3164C152.789 8.57196 146.24 6.49532 141.566 8.97365C140.952 6.39216 139.477 4.09622 137.383 2.46378C135.288 0.831339 132.7 -0.0403044 130.044 -0.00766025C127.387 0.0249839 124.821 0.959974 122.768 2.64338C120.715 4.32679 119.296 6.65829 118.747 9.25407C118.67 10.0776 118.368 10.8643 117.874 11.5278C116.925 12.4979 115.339 12.172 113.981 12.0659C111.841 11.9533 109.724 12.5571 107.966 13.7816C106.208 15.0061 104.909 16.7814 104.275 18.8263L162.943 18.6141C163.459 16.636 162.571 14.8853 160.932 13.6499Z" fill="#333333"/>
<path d="M278.252 38.2587C277.565 37.7571 276.748 37.4639 275.899 37.4142C275.05 37.3644 274.204 37.5603 273.463 37.9783C272.413 36.0554 270.663 34.6101 268.574 33.9425C266.486 33.275 264.22 33.4365 262.247 34.3934C261.737 32.2629 260.517 30.3688 258.787 29.0222C257.058 27.6756 254.921 26.9564 252.727 26.9829C250.534 27.0093 248.415 27.7798 246.718 29.1677C245.022 30.5557 243.848 32.4786 243.39 34.6208C243.322 35.3163 243.059 35.9785 242.631 36.5307C241.872 37.3265 240.536 37.0613 239.421 36.9703C237.651 36.878 235.901 37.378 234.448 38.3912C232.995 39.4043 231.922 40.8727 231.4 42.5636L279.883 42.3817C280.068 41.6103 280.01 40.801 279.718 40.0634C279.426 39.3258 278.914 38.6958 278.252 38.2587Z" fill="#333333"/>
<path d="M319.109 315.354C319.109 317.916 248.14 320 160.598 320C73.0556 320 2.09448 317.916 2.09448 315.354C2.09448 312.792 73.0632 310.701 160.628 310.701C248.193 310.701 319.109 312.785 319.109 315.354Z" fill="#333333"/>
<path opacity="0.3" d="M111.932 123.515L69.2385 313.277H252.868L207.951 123.515" fill="#F3A50D"/>
<path d="M111.72 161.553L94.3568 237.988" stroke="#F3A50D" stroke-width="0.5" stroke-linecap="round" stroke-linejoin="round"/>
<path d="M111.993 160.485C112.281 159.325 112.031 160.318 112.327 159.159" stroke="#F3A50D" stroke-width="0.5" stroke-linecap="round" stroke-linejoin="round"/>
<path d="M163.459 199.047L158.731 248.25" stroke="#F3A50D" stroke-width="0.5" stroke-linecap="round" stroke-linejoin="round"/>
<path d="M166.57 222.784C167.911 208.131 169.251 193.479 170.592 178.826" stroke="#F3A50D" stroke-width="0.5" stroke-linecap="round" stroke-linejoin="round"/>
<path d="M159.11 36.197C124.453 36.197 96.3678 61.6169 96.3678 92.9712H221.845C221.853 61.6169 193.768 36.197 159.11 36.197Z" fill="#F3A50D"/>
<path opacity="0.3" d="M159.11 36.197C124.453 36.197 96.3678 61.6169 96.3678 92.9712H221.845C221.853 61.6169 193.768 36.197 159.11 36.197Z" fill="white"/>
<path opacity="0.3" d="M159.11 36.1971L133.673 58.8128L154.36 57.4789L171.313 37.2733C171.313 37.2733 163.102 36.0834 159.11 36.1971Z" fill="white"/>
<path d="M159.11 122.173C233.468 122.173 293.748 107.691 293.748 89.8261C293.748 71.9613 233.468 57.479 159.11 57.479C84.7524 57.479 24.4733 71.9613 24.4733 89.8261C24.4733 107.691 84.7524 122.173 159.11 122.173Z" fill="#F3A50D"/>
<path opacity="0.3" d="M159.11 122.173C233.468 122.173 293.748 107.691 293.748 89.8261C293.748 71.9613 233.468 57.479 159.11 57.479C84.7524 57.479 24.4733 71.9613 24.4733 89.8261C24.4733 107.691 84.7524 122.173 159.11 122.173Z" fill="black"/>
<path d="M159.194 117.664C202.924 117.664 238.374 111.43 238.374 103.741C238.374 96.0517 202.924 89.8184 159.194 89.8184C115.464 89.8184 80.0143 96.0517 80.0143 103.741C80.0143 111.43 115.464 117.664 159.194 117.664Z" fill="#F3A50D"/>
<path d="M80.2648 104.87L91.9968 122.166H226.953L238.374 104.704L157.714 96.2302L80.2648 104.87Z" fill="#F3A50D"/>
<path d="M159.11 134.103C196.725 134.103 227.218 127.869 227.218 120.18C227.218 112.491 196.725 106.257 159.11 106.257C121.496 106.257 91.0026 112.491 91.0026 120.18C91.0026 127.869 121.496 134.103 159.11 134.103Z" fill="#F3A50D"/>
<path opacity="0.3" d="M159.11 134.103C196.725 134.103 227.218 127.869 227.218 120.18C227.218 112.491 196.725 106.257 159.11 106.257C121.496 106.257 91.0026 112.491 91.0026 120.18C91.0026 127.869 121.496 134.103 159.11 134.103Z" fill="black"/>
<path opacity="0.3" d="M159.11 132.412C188.959 132.412 213.157 127.465 213.157 121.362C213.157 115.259 188.959 110.312 159.11 110.312C129.262 110.312 105.064 115.259 105.064 121.362C105.064 127.465 129.262 132.412 159.11 132.412Z" fill="black"/>
<path d="M108.168 117.664L112.448 125.038L207.784 123.984L210.06 117.664C199.755 110.615 134.903 104.4 108.168 117.664Z" fill="#F3A50D"/>
<path d="M159.945 132.253C186.462 132.253 207.958 128.341 207.958 123.515C207.958 118.689 186.462 114.776 159.945 114.776C133.428 114.776 111.932 118.689 111.932 123.515C111.932 128.341 133.428 132.253 159.945 132.253Z" fill="#F3A50D"/>
<path opacity="0.3" d="M159.945 132.253C186.462 132.253 207.958 128.341 207.958 123.515C207.958 118.689 186.462 114.776 159.945 114.776C133.428 114.776 111.932 118.689 111.932 123.515C111.932 128.341 133.428 132.253 159.945 132.253Z" fill="white"/>
<g opacity="0.3">
<path d="M159.11 57.479C84.742 57.479 24.4733 71.9625 24.4733 89.8261C24.4733 92.0998 25.4825 94.3735 27.3797 96.5335C33.6479 82.8913 51.3445 76.9343 66.5749 73.1978C124.203 59.0782 186.24 59.0782 244.444 70.4467C262.149 73.9102 280.748 79.2534 293.573 91.4632C293.687 90.9172 293.746 90.3611 293.748 89.8034C293.748 71.9624 233.479 57.479 159.11 57.479Z" fill="white"/>
</g>
<path opacity="0.3" d="M80.0068 103.741L31.8722 89.8259L80.2648 102.627L80.0068 103.741Z" fill="black"/>
<path opacity="0.3" d="M103.843 66.0811L113.29 92.4029L115.446 92.1376L103.843 66.0811Z" fill="black"/>
<path opacity="0.3" d="M196.401 91.4556L200.863 63.9136L198.685 91.6223L196.401 91.4556Z" fill="black"/>
<path opacity="0.3" d="M238.373 104.704L285.081 84.8467L237.387 101.52C237.387 101.52 239.77 102.574 238.373 104.704Z" fill="black"/>
<path opacity="0.3" d="M159.11 57.4789L174.242 37.8645L178.226 38.8801L163.459 57.5774L159.11 57.4789Z" fill="white"/>
<path d="M84.2412 90.9022C86.3828 90.9022 88.119 90.4203 88.119 89.826C88.119 89.2316 86.3828 88.7498 84.2412 88.7498C82.0995 88.7498 80.3634 89.2316 80.3634 89.826C80.3634 90.4203 82.0995 90.9022 84.2412 90.9022Z" fill="white"/>
<path d="M160.841 83.7476C160.841 84.3388 159.11 84.8238 156.963 84.8238C154.815 84.8238 153.085 84.3388 153.085 83.7476C153.085 83.1564 154.823 82.679 156.963 82.679C159.103 82.679 160.841 83.1564 160.841 83.7476Z" fill="white"/>
<path d="M248.011 112.063C248.011 112.654 246.273 113.139 244.133 113.139C241.993 113.139 240.248 112.654 240.248 112.063C240.248 111.472 241.986 110.987 244.133 110.987C246.281 110.987 248.011 111.472 248.011 112.063Z" fill="white"/>
<path d="M230.997 90.7052C230.861 91.2812 229.062 91.357 226.975 90.8643C224.889 90.3717 223.31 89.5153 223.439 88.9392C223.568 88.3632 225.382 88.2875 227.461 88.7801C229.54 89.2727 231.134 90.1519 230.997 90.7052Z" fill="white"/>
<path d="M80.0219 110.956C80.0219 111.555 78.2841 112.033 76.1441 112.033C74.0041 112.033 72.2664 111.555 72.2664 110.956C72.2664 110.358 74.0041 109.888 76.1441 109.888C78.2841 109.888 80.0219 110.365 80.0219 110.956Z" fill="white"/>
<path d="M108.722 52.9013C115.84 45.5951 123.763 39.2591 133.385 36.4246" stroke="#F3A50D" stroke-width="0.5" stroke-miterlimit="10"/>
<path d="M135.813 35.7272L136.99 35.4241" stroke="#F3A50D" stroke-width="0.5" stroke-miterlimit="10"/>
</g>
<defs>
<clipPath id="clip0_808_148">
<rect width="322" height="320" fill="white"/>
</clipPath>
</defs>
</svg>
